<svg xmlns="http://www.w3.org/2000/svg" xmlns:xlink="http://www.w3.org/1999/xlink" preserveAspectRatio="xMidYMid" width="22" height="31" viewBox="0 0 22 31">
  <defs>
    <style>

      .cls-2 {
        fill: #2e2e2e;
      }
    </style>
  </defs>
  <path d="M16.000,6.200 C16.000,6.200 16.000,5.166 16.000,5.166 C16.000,2.313 13.761,-0.001 11.000,-0.001 C8.239,-0.001 6.000,2.313 6.000,5.166 C6.000,5.166 6.000,6.200 6.000,6.200 C6.000,6.200 -0.000,6.200 -0.000,6.200 C-0.000,6.200 -0.000,31.000 -0.000,31.000 C-0.000,31.000 22.000,31.000 22.000,31.000 C22.000,31.000 22.000,6.200 22.000,6.200 C22.000,6.200 16.000,6.200 16.000,6.200 ZM8.000,5.166 C8.000,3.454 9.343,2.066 11.000,2.066 C12.657,2.066 14.000,3.454 14.000,5.166 C14.000,5.166 14.000,6.200 14.000,6.200 C14.000,6.200 8.000,6.200 8.000,6.200 C8.000,6.200 8.000,5.166 8.000,5.166 ZM20.000,28.933 C20.000,28.933 2.000,28.933 2.000,28.933 C2.000,28.933 2.000,8.266 2.000,8.266 C2.000,8.266 6.000,8.266 6.000,8.266 C6.000,8.266 6.000,11.366 6.000,11.366 C6.000,11.366 8.000,11.366 8.000,11.366 C8.000,11.366 8.000,8.266 8.000,8.266 C8.000,8.266 14.000,8.266 14.000,8.266 C14.000,8.266 14.000,11.366 14.000,11.366 C14.000,11.366 16.000,11.366 16.000,11.366 C16.000,11.366 16.000,8.266 16.000,8.266 C16.000,8.266 20.000,8.266 20.000,8.266 C20.000,8.266 20.000,28.933 20.000,28.933 Z" id="path-1" class="cls-2" fill-rule="evenodd"/>
</svg>
