<svg xmlns="http://www.w3.org/2000/svg" xmlns:xlink="http://www.w3.org/1999/xlink" preserveAspectRatio="xMidYMid" width="25" height="25" viewBox="0 0 25 25">
  <defs>
    <style>

      .cls-2 {
        fill: #2e2e2e;
        opacity: 0.4;
      }
    </style>
  </defs>
  <path d="M24.680,23.211 C24.680,23.211 18.673,17.204 18.673,17.204 C20.162,15.389 21.060,13.064 21.060,10.529 C21.060,4.716 16.343,-0.000 10.530,-0.000 C4.712,-0.000 -0.000,4.716 -0.000,10.529 C-0.000,16.343 4.712,21.059 10.530,21.059 C13.064,21.059 15.384,20.167 17.200,18.678 C17.200,18.678 23.206,24.680 23.206,24.680 C23.614,25.088 24.272,25.088 24.680,24.680 C25.088,24.277 25.088,23.614 24.680,23.211 ZM10.530,18.963 C5.874,18.963 2.091,15.180 2.091,10.529 C2.091,5.879 5.874,2.090 10.530,2.090 C15.180,2.090 18.969,5.879 18.969,10.529 C18.969,15.180 15.180,18.963 10.530,18.963 Z" id="path-1" class="cls-2" fill-rule="evenodd"/>
</svg>
