<?xml version="1.0" standalone="no"?>
<!DOCTYPE svg PUBLIC "-//W3C//DTD SVG 1.1//EN" "http://www.w3.org/Graphics/SVG/1.1/DTD/svg11.dtd" >
<svg xmlns="http://www.w3.org/2000/svg" xmlns:xlink="http://www.w3.org/1999/xlink" version="1.1">
<metadata>
Created by FontForge 20170731 at Fri Jun  1 11:42:57 2018
 By Aleksey,,,
Copyright (c) 2014 by Andriy Konstantynov. All rights reserved.
</metadata>
<defs>
<font id="AngleciaProDisplay-Medium" horiz-adv-x="623" >
  <font-face 
    font-family="Anglecia Pro Display"
    font-weight="500"
    font-stretch="normal"
    units-per-em="1000"
    panose-1="2 5 0 3 8 0 0 0 0 0"
    ascent="780"
    descent="-220"
    x-height="500"
    cap-height="700"
    bbox="-21 -205 1090 902"
    underline-thickness="50"
    underline-position="-200"
    unicode-range="U+0020-2116"
  />
<missing-glyph horiz-adv-x="216" 
 />
    <glyph glyph-name=".notdef" horiz-adv-x="216" 
 />
    <glyph glyph-name=".null" horiz-adv-x="0" 
 />
    <glyph glyph-name="nonmarkingreturn" horiz-adv-x="333" 
 />
    <glyph glyph-name="space" unicode=" " horiz-adv-x="216" 
 />
    <glyph glyph-name="uni0400" unicode="&#x400;" 
d="M212 350v-328h295l52 106h17v-128h-559v10l65 16v648l-65 16v10h549v-128h-17l-52 106h-285v-306h230l23 82h16v-185h-16l-23 81h-230zM189 824l66 68l139 -150l-11 -11z" />
    <glyph glyph-name="afii10023" unicode="&#x401;" 
d="M212 350v-328h295l52 106h17v-128h-559v10l65 16v648l-65 16v10h549v-128h-17l-52 106h-285v-306h230l23 82h16v-185h-16l-23 81h-230zM128 823q0 31 20 51t50 20q31 0 51 -20t20 -51q0 -30 -20 -50t-51 -20q-30 0 -50 20t-20 50zM355 823q0 31 20 51t50 20q31 0 51 -20
t20 -51q0 -30 -20 -50t-51 -20q-30 0 -50 20t-20 50z" />
    <glyph glyph-name="afii10051" unicode="&#x402;" horiz-adv-x="821" 
d="M596 -110v-47q29 0 42.5 49t13.5 156v182q0 155 -108 155q-80 0 -140 -57v-297l61 -19v-12h-256v12l65 19v647h-178l-51 -106h-18v128h624v-128h-17l-52 106h-178v-264l-3 -61l3 -3q43 35 103.5 55t115.5 20q78 0 118.5 -46t40.5 -126v-205q0 -109 -50.5 -167.5
t-144.5 -58.5q-55 0 -83 19.5t-28 53.5q0 27 17 44t43 17t43 -18t17 -48z" />
    <glyph glyph-name="afii10052" unicode="&#x403;" horiz-adv-x="578" 
d="M221 731l-10 11l138 150l67 -68zM475 678h-263v-647l95 -19v-12h-290v12l65 19v643l-65 16v10h527v-128h-18z" />
    <glyph glyph-name="afii10053" unicode="&#x404;" horiz-adv-x="701" 
d="M642 109l12 -12q-100 -103 -261 -103q-159 0 -254 96q-94 95 -94 260q0 164 94 259q94 97 250 97q124 0 203 -56l49 26l10 -10v-144h-18q-24 98 -94 131q-57 28 -119 28q-232 0 -239 -312h348v-22h-348q2 -152 66.5 -234.5t191.5 -82.5t203 79z" />
    <glyph glyph-name="afii10054" unicode="&#x405;" horiz-adv-x="590" 
d="M62 9l-10 10v148h18q24 -95 93 -130q60 -28 116 -28q79 0 123.5 39t44.5 107q0 62 -37 87q-36 25 -131 54l-49 15q-6 2 -45 16q-28 10 -44 20q-48 31 -64 59q-24 44 -24 97q0 93 61 148t175 55q95 0 168 -45l46 29l10 -10v-147h-18q-12 47 -35 80t-51 49t-53.5 22.5
t-51.5 6.5q-68 0 -108.5 -37t-40.5 -98q0 -59 44 -87q28 -16 45 -23q38 -14 67 -22q33 -10 52 -18q64 -20 94 -42q54 -38 67 -63q25 -46 25 -98q0 -96 -66 -152.5t-193 -56.5q-103 0 -181 45z" />
    <glyph glyph-name="afii10055" unicode="&#x406;" horiz-adv-x="294" 
d="M273 688l-62 -20v-637l62 -19v-12h-255v12l65 19v637l-65 20v12h255v-12z" />
    <glyph glyph-name="afii10056" unicode="&#x407;" horiz-adv-x="294" 
d="M273 688l-62 -20v-637l62 -19v-12h-255v12l65 19v637l-65 20v12h255v-12zM-19 807q0 31 20 50.5t51 19.5q30 0 50 -19.5t20 -50.5q0 -30 -20 -50t-50 -20q-31 0 -51 20t-20 50zM172 807q0 31 19.5 50.5t50.5 19.5q30 0 50 -19.5t20 -50.5q0 -30 -20 -50t-50 -20
q-31 0 -50.5 20t-19.5 50z" />
    <glyph glyph-name="afii10057" unicode="&#x408;" horiz-adv-x="294" 
d="M83 21v647l-65 20v12h255v-12l-63 -20v-647q0 -73 -43 -126t-135 -100l-11 11q62 92 62 215z" />
    <glyph glyph-name="afii10058" unicode="&#x409;" horiz-adv-x="1094" 
d="M206 143l55 531l-65 16v10h524v-10l-65 -16v-287h126q121 0 194 -52q74 -53 74 -141q0 -89 -74 -142q-73 -52 -194 -52h-321v10l65 16v652h-243l-54 -532q-16 -151 -108 -151q-39 0 -66 20t-27 60q0 30 17.5 48t45.5 18q30 0 47.5 -18t17.5 -51v-31q4 -2 9 -2
q13 0 24.5 28.5t17.5 75.5zM655 365v-343h102q74 0 117 44.5t43 127.5t-43 127t-117 44h-102z" />
    <glyph glyph-name="afii10059" unicode="&#x40a;" horiz-adv-x="1096" 
d="M17 0v12l65 19v637l-65 20v12h260v-12l-65 -20v-291h315v291l-65 20v12h260v-12l-65 -20v-291h126q121 0 194 -51q74 -50 74 -137t-74 -138q-73 -51 -194 -51h-321v10l65 16v329h-315v-324l65 -19v-12h-260zM657 355v-333h102q75 0 117.5 43t42.5 124q0 80 -43 123
t-117 43h-102z" />
    <glyph glyph-name="afii10060" unicode="&#x40b;" horiz-adv-x="863" 
d="M404 328v-297l61 -19v-12h-256v12l65 19v647h-178l-51 -106h-18v128h624v-128h-17l-52 106h-178v-264l-3 -61l3 -3q43 35 103.5 55t115.5 20q78 0 118.5 -46t40.5 -127v-221l65 -19v-12h-262v12l67 19v202q0 152 -108 152q-80 0 -140 -57z" />
    <glyph glyph-name="afii10061" unicode="&#x40c;" horiz-adv-x="707" 
d="M679 41l9 -9q-38 -38 -107 -38q-61 0 -94 34t-49 109l-20 94q-13 62 -45 90t-96 28h-69v-318l65 -19v-12h-259v12l65 19v637l-65 20v12h259v-12l-65 -20v-298q127 0 160 119l18 73q20 74 51.5 109t88.5 35q44 0 71.5 -20.5t27.5 -59.5q0 -32 -17 -49t-47 -17t-47 18.5
t-17 50.5v39q-7 4 -16 4q-44 0 -72 -109l-18 -74q-22 -88 -88 -120h20q100 0 151.5 -31t67.5 -103l21 -91q15 -65 30.5 -92t42.5 -27q21 0 43 16zM284 731l-11 11l139 150l67 -68z" />
    <glyph glyph-name="uni040D" unicode="&#x40d;" horiz-adv-x="758" 
d="M256 824l67 68l138 -150l-10 -11zM17 0v12l65 19v637l-65 20v12h260v-12l-65 -20v-562l334 547v15l-65 20v12h260v-12l-65 -20v-637l65 -19v-12h-260v12l65 19v566l-334 -548v-18l65 -19v-12h-260z" />
    <glyph glyph-name="afii10062" unicode="&#x40e;" horiz-adv-x="701" 
d="M420 763v62q0 28 15.5 44.5t40.5 16.5q26 0 41.5 -15.5t15.5 -39.5q0 -32 -29 -55q-52 -39 -140 -39q-62 0 -116 23q-53 24 -53 71q-4 38 34 50q36 13 62 -10q19 -17 17 -46v-62q31 -11 56 -11q23 0 56 11zM330 180l-254 488l-64 20v12h264v-12l-66 -20l189 -366l197 366
l-89 20v12h182v-12l-69 -20l-260 -480q-56 -105 -98 -150q-41 -44 -100 -44q-57 0 -87 30q-19 19 -19 51q0 31 18 49t47 18q28 0 45.5 -18t17.5 -47v-48q6 -3 12 -3q29 0 61 38t73 116z" />
    <glyph glyph-name="afii10145" unicode="&#x40f;" horiz-adv-x="750" 
d="M363 -154l-26 154h-320v10l65 16v642l-65 20v12h260v-12l-65 -20v-646h326v646l-65 20v12h260v-12l-65 -20v-642l65 -16v-10h-318l-26 -154h-26z" />
    <glyph glyph-name="afii10017" unicode="&#x410;" horiz-adv-x="761" 
d="M369 700h38l283 -669l64 -19v-12h-263v12l65 19l-81 196h-290l-85 -196l89 -19v-12h-183v12l70 19zM465 249l-132 320l-139 -320h271z" />
    <glyph glyph-name="afii10018" unicode="&#x411;" horiz-adv-x="654" 
d="M479 678h-267v-279h129q121 0 195 -54q74 -53 74 -145t-74 -146t-195 -54h-324v10l65 16v648l-65 16v10h531v-128h-18zM212 377v-355h105q76 0 118.5 46t42.5 132t-42.5 131.5t-118.5 45.5h-105z" />
    <glyph glyph-name="afii10019" unicode="&#x412;" horiz-adv-x="668" 
d="M17 690v10h333q110 0 178 -47t68 -127q0 -64 -43.5 -108t-120.5 -59q89 -14 140 -61t51 -115q0 -85 -75 -134q-74 -49 -198 -49h-333v10l65 16v648zM212 348v-326h115q77 0 120.5 41.5t43.5 120.5q0 80 -44 122t-120 42h-115zM327 678h-115v-308h115q64 0 100.5 39.5
t36.5 114.5t-36.5 114.5t-100.5 39.5z" />
    <glyph glyph-name="afii10020" unicode="&#x413;" horiz-adv-x="578" 
d="M475 678h-263v-647l95 -19v-12h-290v12l65 19v643l-65 16v10h527v-128h-18z" />
    <glyph glyph-name="afii10021" unicode="&#x414;" horiz-adv-x="720" 
d="M677 -154l-54 154h-526l-54 -154h-27v176h82q16 6 30 39t20 82l56 531l-65 16v10h556v-10l-65 -16v-652h73v-176h-26zM500 678h-271l-54 -532q-11 -96 -42 -124h367v656z" />
    <glyph glyph-name="afii10022" unicode="&#x415;" 
d="M212 350v-328h295l52 106h17v-128h-559v10l65 16v648l-65 16v10h549v-128h-17l-52 106h-285v-306h230l23 82h16v-185h-16l-23 81h-230z" />
    <glyph glyph-name="afii10024" unicode="&#x416;" horiz-adv-x="1078" 
d="M201 668v-39q0 -32 -17 -50.5t-48 -18.5q-30 0 -46.5 17t-16.5 49q0 39 26.5 59.5t70.5 20.5q55 0 84.5 -34t49.5 -110l20 -73q35 -119 150 -119v298l-65 20v12h259v-12l-65 -20v-298q115 0 150 119l20 73q20 76 49.5 110t84.5 34q44 0 70.5 -20.5t26.5 -59.5
q0 -32 -16.5 -49t-46.5 -17q-31 0 -48 18.5t-17 50.5v39q-7 4 -14 4q-40 0 -68 -109l-19 -74q-25 -90 -84 -120h22q100 0 149.5 -33.5t64.5 -113.5l16 -78q12 -65 27.5 -92t41.5 -27q22 0 42 16l9 -9q-35 -38 -103 -38q-59 0 -91.5 35t-45.5 108l-14 81q-13 71 -44 101
t-96 30h-66v-318l65 -19v-12h-259v12l65 19v318h-66q-65 0 -96 -30t-44 -101l-14 -81q-13 -73 -45.5 -108t-91.5 -35q-68 0 -103 38l9 9q20 -16 42 -16q26 0 41.5 27t27.5 92l16 78q16 80 65 113.5t149 33.5h21q-58 31 -82 120l-20 74q-28 109 -68 109q-7 0 -14 -4z" />
    <glyph glyph-name="afii10025" unicode="&#x417;" horiz-adv-x="614" 
d="M78 537h-17v139l10 10l48 -21q70 41 179 41t176 -49q68 -48 68 -131q0 -63 -42.5 -107t-118.5 -60q87 -14 137.5 -61t50.5 -116q0 -86 -74 -137q-73 -51 -195 -51q-119 0 -192 43l-48 -23l-10 10v141h17q23 -88 89 -119q56 -26 112 -26q80 0 124.5 42t44.5 122
q0 82 -46 123t-132 41q-49 0 -85 -4v29q47 -3 85 -3q151 0 151 154q0 77 -37.5 117t-104.5 40q-49 0 -102 -25q-65 -28 -88 -119z" />
    <glyph glyph-name="afii10026" unicode="&#x418;" horiz-adv-x="758" 
d="M17 0v12l65 19v637l-65 20v12h260v-12l-65 -20v-562l334 547v15l-65 20v12h260v-12l-65 -20v-637l65 -19v-12h-260v12l65 19v566l-334 -548v-18l65 -19v-12h-260z" />
    <glyph glyph-name="afii10027" unicode="&#x419;" horiz-adv-x="758" 
d="M435 779v63q0 27 15.5 43.5t40.5 16.5q26 0 41.5 -15.5t15.5 -39.5q0 -46 -54 -70q-52 -24 -115 -24t-116 24t-53 71q-4 37 34 50q36 11 62 -11q19 -18 17 -45v-63q26 -10 56 -10q29 0 56 10zM17 0v12l65 19v637l-65 20v12h260v-12l-65 -20v-562l334 547v15l-65 20v12
h260v-12l-65 -20v-637l65 -19v-12h-260v12l65 19v566l-334 -548v-18l65 -19v-12h-260z" />
    <glyph glyph-name="afii10028" unicode="&#x41a;" horiz-adv-x="703" 
d="M679 41l9 -9q-38 -38 -107 -38q-61 0 -94 34t-49 109l-20 94q-13 62 -45 90t-96 28h-69v-318l65 -19v-12h-259v12l65 19v637l-65 20v12h259v-12l-65 -20v-298q127 0 160 119l18 73q20 74 51.5 109t88.5 35q44 0 71.5 -20.5t27.5 -59.5q0 -32 -17 -49t-47 -17t-47 18.5
t-17 50.5v39q-7 4 -16 4q-44 0 -72 -109l-18 -74q-22 -88 -88 -120h20q100 0 151.5 -31t67.5 -103l21 -91q15 -65 30.5 -92t42.5 -27q21 0 43 16z" />
    <glyph glyph-name="afii10029" unicode="&#x41b;" horiz-adv-x="752" 
d="M206 143l55 531l-65 16v10h539v-10l-65 -16v-643l65 -19v-12h-260v12l65 19v647h-253l-54 -532q-16 -151 -113 -151q-39 0 -66 20t-27 60q0 30 17.5 48t45.5 18q30 0 47.5 -18t17.5 -51v-31q4 -2 9 -2q13 0 24.5 28.5t17.5 75.5z" />
    <glyph glyph-name="afii10030" unicode="&#x41c;" horiz-adv-x="934" 
d="M877 688l-62 -20l45 -637l62 -19v-12h-257v12l65 19l-40 564l-254 -595h-38l-258 596l-41 -567l62 -19v-10h-149v10l65 19l45 639l-65 20v12h172l242 -569l241 569h165v-12z" />
    <glyph glyph-name="afii10031" unicode="&#x41d;" horiz-adv-x="758" 
d="M17 0v12l65 19v637l-65 20v12h260v-12l-65 -20v-301h334v301l-65 20v12h260v-12l-65 -20v-637l65 -19v-12h-260v12l65 19v314h-334v-314l65 -19v-12h-260z" />
    <glyph glyph-name="afii10032" unicode="&#x41e;" horiz-adv-x="768" 
d="M45 350q0 162 94 259t245 97t245 -97t94 -259q0 -163 -94 -260q-93 -96 -245 -96t-246 96q-93 98 -93 260zM236 604q-55 -86 -55 -255t55 -254q56 -86 148 -86q93 0 147 86q55 85 55 254t-55 255q-54 87 -147 87q-92 0 -148 -87z" />
    <glyph glyph-name="afii10033" unicode="&#x41f;" horiz-adv-x="750" 
d="M17 0v12l65 19v643l-65 16v10h716v-10l-65 -16v-643l65 -19v-12h-260v12l65 19v647h-326v-647l65 -19v-12h-260z" />
    <glyph glyph-name="afii10034" unicode="&#x420;" horiz-adv-x="640" 
d="M300 678h-88v-647l102 -19v-12h-297v12l65 19v643l-65 16v10h298q122 0 197 -54q76 -54 76 -147t-76 -147q-75 -54 -197 -54h-74l-14 15v7h73q73 0 114.5 46.5t41.5 132.5t-41.5 132.5t-114.5 46.5z" />
    <glyph glyph-name="afii10035" unicode="&#x421;" horiz-adv-x="701" 
d="M642 108l12 -12q-100 -102 -261 -102q-159 0 -254 96q-94 95 -94 260q0 164 94 259q94 97 250 97q124 0 203 -56l49 26l10 -10v-144h-18q-25 98 -98 131q-59 28 -120 28q-112 0 -173 -83t-61 -243q0 -155 65 -240t194 -85q127 0 202 78z" />
    <glyph glyph-name="afii10036" unicode="&#x422;" horiz-adv-x="679" 
d="M641 572l-52 106h-176v-647l65 -19v-12h-259v12l65 19v647h-176l-52 -106h-17v128h619v-128h-17z" />
    <glyph glyph-name="afii10037" unicode="&#x423;" horiz-adv-x="701" 
d="M330 180l-254 488l-64 20v12h264v-12l-66 -20l189 -366l197 366l-89 20v12h182v-12l-69 -20l-260 -480q-56 -105 -98 -150q-41 -44 -100 -44q-57 0 -87 30q-19 19 -19 51q0 31 18 49t47 18q28 0 45.5 -18t17.5 -47v-48q6 -3 12 -3q29 0 61 38t73 116z" />
    <glyph glyph-name="afii10038" unicode="&#x424;" horiz-adv-x="897" 
d="M576 688l-63 -20v-47q155 0 246 -73q93 -74 93 -198q0 -126 -93 -199q-91 -73 -246 -73v-47l63 -19v-12h-258v12l65 19v47q-155 0 -246 73q-92 74 -92 199q0 124 92 198q91 73 246 73v47l-65 20v12h258v-12zM383 93v513q-96 0 -149 -65.5t-53 -191.5q0 -125 53.5 -190.5
t148.5 -65.5zM513 606v-513q96 0 149 65.5t53 190.5q0 127 -52.5 192t-149.5 65z" />
    <glyph glyph-name="afii10039" unicode="&#x425;" horiz-adv-x="745" 
d="M470 12l66 19l-208 295l-216 -295l85 -19v-12h-183v12l73 19l228 312l-229 325l-61 20v12h260v-12l-65 -20l190 -271l189 271l-85 20v12h183v-12l-73 -20l-201 -289l246 -348l62 -19v-12h-261v12z" />
    <glyph glyph-name="afii10040" unicode="&#x426;" horiz-adv-x="755" 
d="M710 -154l-57 154h-636v10l65 16v642l-65 20v12h260v-12l-65 -20v-646h321v646l-65 20v12h260v-12l-65 -20v-646h73v-176h-26z" />
    <glyph glyph-name="afii10041" unicode="&#x427;" horiz-adv-x="714" 
d="M277 688l-65 -20v-180q0 -165 131 -165q89 0 159 40v305l-65 20v12h260v-12l-65 -20v-637l65 -19v-12h-260v12l65 19v312q-89 -56 -217 -56q-100 0 -151.5 48.5t-51.5 136.5v196l-65 20v12h260v-12z" />
    <glyph glyph-name="afii10042" unicode="&#x428;" horiz-adv-x="1099" 
d="M17 0v10l65 16v642l-65 20v12h260v-12l-65 -20v-646h273v646l-65 20v12h260v-12l-65 -20v-646h272v646l-65 20v12h260v-12l-65 -20v-642l65 -16v-10h-1065z" />
    <glyph glyph-name="afii10043" unicode="&#x429;" horiz-adv-x="1109" 
d="M1064 -154l-57 154h-990v10l65 16v642l-65 20v12h260v-12l-65 -20v-646h273v646l-65 20v12h260v-12l-65 -20v-646h272v646l-65 20v12h260v-12l-65 -20v-646h73v-176h-26z" />
    <glyph glyph-name="afii10044" unicode="&#x42a;" horiz-adv-x="824" 
d="M450 690l-65 -16v-287h126q121 0 194 -52q74 -53 74 -141q0 -89 -74 -142q-73 -52 -194 -52h-321v10l65 16v652h-150l-51 -106h-18v128h414v-10zM385 365v-343h102q74 0 117 44.5t43 127.5t-43 127t-117 44h-102z" />
    <glyph glyph-name="afii10045" unicode="&#x42b;" horiz-adv-x="915" 
d="M277 688l-65 -20v-281h125q122 0 195 -52q74 -53 74 -141q0 -89 -74 -142q-73 -52 -195 -52h-320v10l65 16v642l-65 20v12h260v-12zM212 365v-343h102q74 0 117 44.5t43 127.5t-43 127t-117 44h-102zM896 688l-63 -20v-637l63 -19v-12h-257v12l65 19v637l-65 20v12h257
v-12z" />
    <glyph glyph-name="afii10046" unicode="&#x42c;" horiz-adv-x="650" 
d="M277 688l-65 -20v-281h125q122 0 195 -52q74 -53 74 -141q0 -89 -74 -142q-73 -52 -195 -52h-320v10l65 16v642l-65 20v12h260v-12zM212 365v-343h102q74 0 117 44.5t43 127.5t-43 127t-117 44h-102z" />
    <glyph glyph-name="afii10047" unicode="&#x42d;" horiz-adv-x="701" 
d="M526 347h-347v22h347q-3 154 -63 233t-174 79q-60 0 -119 -28q-73 -33 -96 -131h-17v144l10 10l48 -26q79 56 202 56q157 0 251 -97q95 -97 95 -259t-95 -260q-94 -96 -252 -96q-130 0 -207 56l-49 -26l-10 10v144h18q25 -98 97 -131q61 -27 121 -27q238 0 240 327z" />
    <glyph glyph-name="afii10048" unicode="&#x42e;" horiz-adv-x="1017" 
d="M17 0v12l65 19v637l-65 20v12h260v-12l-65 -20v-301h128q5 155 92 247t224 92q141 0 228 -97q88 -97 88 -259q0 -163 -88 -260q-87 -96 -228 -96q-139 0 -228 95q-86 94 -88 256h-128v-314l65 -19v-12h-260zM477 349q0 -164 48 -252t131 -88q85 0 132.5 87.5t47.5 252.5
t-48.5 253.5t-131.5 88.5t-131 -88.5t-48 -253.5z" />
    <glyph glyph-name="afii10049" unicode="&#x42f;" horiz-adv-x="678" 
d="M14 32l9 9q20 -16 42 -16q25 0 39 24t29 86l18 74q14 58 44 89.5t83 42.5q-90 14 -140.5 61t-50.5 117q0 84 71 132q70 49 189 49h315v-10l-65 -16v-643l65 -19v-12h-267v12l72 19v301h-57q-61 0 -91 -29.5t-45 -97.5l-16 -76q-15 -68 -48.5 -101.5t-92.5 -33.5
q-68 0 -103 38zM467 354v324h-106q-67 0 -104.5 -41.5t-37.5 -120.5q0 -80 37.5 -121t104.5 -41h106z" />
    <glyph glyph-name="afii10065" unicode="&#x430;" horiz-adv-x="559" 
d="M360 62l-3 3q-74 -71 -178 -71q-66 0 -100 30t-34 86q0 63 50 97q21 16 63 28q40 13 81 21q85 16 105 19q2 0 5 0.5t5 1t3 0.5v96q0 52 -25 83t-70 31q-34 0 -65 -19v-82q0 -35 -19 -55.5t-50 -20.5q-30 0 -49 19t-19 51q0 59 61 90q61 33 143 33q103 0 160.5 -42
t57.5 -111v-303q0 -23 23 -23q21 0 32 11l8 -8q-29 -29 -104 -29q-38 0 -57.5 14.5t-23.5 49.5zM357 88v174q-104 -16 -136 -32q-49 -33 -50 -106q0 -43 19.5 -66t54.5 -23q62 0 112 53z" />
    <glyph glyph-name="afii10066" unicode="&#x431;" horiz-adv-x="598" 
d="M112 410h4q25 43 77 68.5t116 25.5q113 0 182 -70q70 -70 70 -187q0 -115 -70 -184q-70 -68 -186 -68q-254 0 -254 335q0 96 21 166q34 114 134 166q57 29 176 38q101 8 120 27l14 -14q-13 -32 -33 -53.5t-47.5 -32t-51.5 -15t-59 -7.5q-29 -2 -45 -4t-42 -7t-40 -13
t-32.5 -22t-28 -33.5t-17 -49t-8.5 -66.5zM183 249q0 -115 33.5 -177t92.5 -62q58 0 91.5 62t33.5 177q0 116 -33.5 178t-91.5 62q-59 0 -92.5 -62t-33.5 -178z" />
    <glyph glyph-name="afii10067" unicode="&#x432;" horiz-adv-x="556" 
d="M17 490v10h314q76 0 123 -33.5t47 -89.5q0 -45 -31.5 -77t-86.5 -43q66 -9 103.5 -42.5t37.5 -83.5q0 -60 -52.5 -95.5t-140.5 -35.5h-314v10l60 16v448zM289 248h-87v-228h87q52 0 80 28.5t28 84.5t-28 85.5t-80 29.5zM202 480v-213h87q40 0 62.5 27.5t22.5 79.5
t-22.5 79t-62.5 27h-87z" />
    <glyph glyph-name="afii10068" unicode="&#x433;" horiz-adv-x="466" 
d="M419 387l-35 91h-182v-447l90 -19v-12h-275v12l60 19v443l-60 16v10h419v-113h-17z" />
    <glyph glyph-name="afii10069" unicode="&#x434;" horiz-adv-x="588" 
d="M542 -135l-46 135h-404l-46 -135h-25v157h63q19 6 34.5 39.5t21.5 81.5l41 331l-60 16v10h440v-10l-60 -16v-452h66v-157h-25zM376 478h-174l-40 -332q-10 -93 -46 -124h260v456z" />
    <glyph glyph-name="afii10070" unicode="&#x435;" horiz-adv-x="562" 
d="M515 265l-15 -15h-336q1 -220 186 -220q85 0 144 59l11 -12q-83 -82 -207 -82q-126 0 -194 68q-67 68 -67 181q0 118 71 189t183 71q99 0 164 -56t65 -144q0 -21 -5 -39zM296 489q-56 0 -92.5 -58.5t-39.5 -165.5l235 17q0 207 -103 207z" />
    <glyph glyph-name="afii10072" unicode="&#x436;" horiz-adv-x="855" 
d="M686 425v44q-8 2 -10 2q-34 0 -49 -72l-13 -53q-15 -61 -58 -82h30q76 0 114.5 -25t50.5 -84l10 -52q16 -111 72 -69l8 -8q-28 -31 -97 -31q-47 0 -68 24t-33 80l-13 63q-11 49 -32 68t-66 19h-42v-218l56 -19v-12h-241v12l60 19v218h-41q-45 0 -66.5 -19.5t-31.5 -67.5
l-13 -63q-13 -56 -34 -80t-67 -24q-67 0 -98 31l8 8q14 -11 28 -11q17 0 26 17t18 63l10 52q12 59 51 84t115 25h29q-45 22 -58 82l-12 53q-17 72 -50 72q-2 0 -10 -2v-44q0 -28 -16.5 -44.5t-44.5 -16.5q-27 0 -42.5 16t-15.5 46q0 39 25.5 59t66.5 20q87 0 109 -106
l12 -53q9 -37 35 -59t67 -22v204l-60 19v12h245v-12l-60 -19v-204q41 0 67.5 22t35.5 59l12 53q22 106 109 106q41 0 66 -20t25 -59q0 -30 -15.5 -46t-42.5 -16q-28 0 -44.5 16.5t-16.5 44.5z" />
    <glyph glyph-name="afii10073" unicode="&#x437;" horiz-adv-x="505" 
d="M165 247v26q36 -3 63 -3q98 0 98 105q0 113 -92 113q-46 0 -89 -30t-55 -100h-22v125l10 10l23 -18q72 29 156 29q92 0 144 -34t52 -91q0 -45 -32.5 -76.5t-89.5 -42.5q66 -10 104 -43.5t38 -84.5q0 -64 -59 -100.5t-166 -36.5q-82 0 -145 26q-62 27 -62 78
q0 26 16.5 42.5t42.5 16.5q28 0 44.5 -19t16.5 -53v-58q39 -17 75 -17q52 0 80.5 31.5t28.5 91.5q0 116 -115 116q-29 0 -65 -3z" />
    <glyph glyph-name="afii10074" unicode="&#x438;" 
d="M17 0v12l60 19v438l-60 19v12h236v-12l-51 -19v-284l-3 -81l3 -3l218 350v18l-50 19v12h236v-12l-60 -19v-438l60 -19v-12h-236v12l50 19v284l3 81l-3 3l-218 -350v-18l51 -19v-12h-236z" />
    <glyph glyph-name="afii10075" unicode="&#x439;" 
d="M367 579v63q0 27 16 43.5t41 16.5q26 0 41 -15.5t15 -39.5q0 -46 -53 -70t-116 -24t-116 24t-53 71q0 24 15.5 39t40.5 15q26 0 41.5 -16t15.5 -44v-63q27 -10 56 -10q30 0 56 10zM17 0v12l60 19v438l-60 19v12h236v-12l-51 -19v-284l-3 -81l3 -3l218 350v18l-50 19v12
h236v-12l-60 -19v-438l60 -19v-12h-236v12l50 19v284l3 81l-3 3l-218 -350v-18l51 -19v-12h-236z" />
    <glyph glyph-name="afii10076" unicode="&#x43a;" horiz-adv-x="582" 
d="M407 426v44q-8 2 -10 2q-37 0 -53 -73l-11 -53q-15 -59 -62 -82h29q79 0 119.5 -25t52.5 -84l11 -52q10 -46 19.5 -63t26.5 -17q15 0 29 11l8 -8q-31 -31 -99 -31q-48 0 -70 24t-35 80l-14 63q-11 49 -33 68t-69 19h-44v-218l56 -19v-12h-241v12l60 19v438l-60 19v12h245
v-12l-60 -19v-204q43 0 71 22t37 59l11 53q22 106 111 106q42 0 68 -19.5t26 -58.5q0 -30 -15.5 -46t-42.5 -16q-28 0 -44.5 16.5t-16.5 44.5z" />
    <glyph glyph-name="afii10077" unicode="&#x43b;" horiz-adv-x="593" 
d="M181 143l34 331l-60 16v10h421v-10l-60 -16v-443l60 -19v-12h-235v12l50 19v447h-155l-33 -332q-15 -151 -106 -151q-36 0 -59.5 19t-23.5 57q0 60 56 60q28 0 44 -15.5t16 -43.5v-31q4 -2 9 -2q13 0 24.5 28.5t17.5 75.5z" />
    <glyph glyph-name="afii10078" unicode="&#x43c;" horiz-adv-x="737" 
d="M703 488l-60 -19l22 -438l60 -19v-12h-245v12l60 19l-20 390l-185 -421h-34l-189 422l-21 -393l60 -19v-10h-140v10l60 19l23 440l-60 19v12h173l161 -370l164 370h171v-12z" />
    <glyph glyph-name="afii10079" unicode="&#x43d;" horiz-adv-x="621" 
d="M17 0v12l60 19v438l-60 19v12h235v-12l-50 -19v-202h217v202l-50 19v12h235v-12l-60 -19v-438l60 -19v-12h-235v12l50 19v214h-217v-214l50 -19v-12h-235z" />
    <glyph glyph-name="afii10080" unicode="&#x43e;" horiz-adv-x="585" 
d="M292 504q115 0 185 -70q71 -69 71 -185t-71 -185t-185 -69t-185 69q-70 69 -70 185t70 185q70 70 185 70zM164 249q0 -115 34.5 -177t93.5 -62q60 0 94 61.5t34 177.5t-33.5 178t-94.5 62q-59 0 -93.5 -62.5t-34.5 -177.5z" />
    <glyph glyph-name="afii10081" unicode="&#x43f;" horiz-adv-x="621" 
d="M17 0v12l60 19v443l-60 16v10h587v-10l-60 -16v-443l60 -19v-12h-235v12l50 19v447h-217v-447l50 -19v-12h-235z" />
    <glyph glyph-name="afii10082" unicode="&#x440;" horiz-adv-x="590" 
d="M292 -200h-275v12l60 19v633l-60 13v13l171 17l14 -14l-3 -56l3 -3q64 70 161 70q92 0 141 -65t49 -178q0 -127 -63.5 -196.5t-178.5 -69.5q-64 0 -109 24v-188l90 -19v-12zM202 411v-377q45 -24 86 -24q67 0 102.5 60.5t35.5 173.5q0 98 -34 159q-33 61 -90 61
q-58 0 -100 -53z" />
    <glyph glyph-name="afii10083" unicode="&#x441;" horiz-adv-x="559" 
d="M370 378v89q-37 22 -73 22q-63 0 -98 -58.5t-35 -161.5q0 -116 44.5 -178t133.5 -62q82 0 144 60l11 -12q-83 -82 -205 -82t-188.5 67.5t-66.5 186.5q0 120 67.5 187.5t191.5 67.5q86 0 150 -34q65 -35 65 -97q0 -33 -19.5 -52t-50.5 -19q-32 0 -51.5 20.5t-19.5 55.5z
" />
    <glyph glyph-name="afii10084" unicode="&#x442;" horiz-adv-x="544" 
d="M497 387l-35 91h-127v-447l60 -19v-12h-246v12l60 19v447h-127l-35 -91h-17v113h484v-113h-17z" />
    <glyph glyph-name="afii10085" unicode="&#x443;" horiz-adv-x="602" 
d="M288 -12l-219 481l-60 19v12h249v-12l-60 -19l153 -341l153 341l-84 19v12h172v-12l-64 -19l-212 -469q-48 -106 -85 -156q-34 -46 -86 -46q-39 0 -65.5 19t-26.5 58q0 29 15 44.5t42 15.5t43 -16.5t16 -44.5v-39q6 -2 11 -2q22 0 45.5 35t62.5 120z" />
    <glyph glyph-name="afii10086" unicode="&#x444;" horiz-adv-x="826" 
d="M473 466l3 -3q50 42 129 42q91 0 137.5 -64t46.5 -178q0 -128 -58.5 -196.5t-166.5 -68.5q-45 0 -88 17v-184l60 -19v-12h-245v12l60 19v167l3 31l-3 3q-47 -38 -127 -38q-93 0 -140 63.5t-47 178.5q0 129 59.5 197.5t169.5 68.5q40 0 85 -17v199l-60 13v13l170 17
l15 -14v-211zM279 23q41 0 72 27v421q-34 14 -62 14q-125 0 -125 -236q0 -105 30.5 -165.5t84.5 -60.5zM549 473q-42 0 -73 -28v-416q36 -14 63 -14q123 0 123 236q0 105 -29.5 163.5t-83.5 58.5z" />
    <glyph glyph-name="afii10087" unicode="&#x445;" horiz-adv-x="591" 
d="M329 12l61 19l-139 191l-143 -191l80 -19v-12h-173v12l68 19l155 209l-162 229l-56 19v12h245v-12l-60 -19l128 -179l134 179l-80 19v12h173v-12l-68 -19l-145 -197l172 -241l56 -19v-12h-246v12z" />
    <glyph glyph-name="afii10088" unicode="&#x446;" horiz-adv-x="628" 
d="M582 -135l-46 135h-519v10l60 16v443l-60 19v12h235v-12l-50 -19v-447h214v447l-50 19v12h235v-12l-60 -19v-447h66v-157h-25z" />
    <glyph glyph-name="afii10089" unicode="&#x447;" horiz-adv-x="601" 
d="M251 488l-49 -19v-109q0 -132 86 -132q65 0 111 40v201l-49 19v12h234v-12l-60 -19v-438l60 -19v-12h-245v12l60 19v217q-70 -56 -169 -56q-74 0 -113.5 41t-39.5 111v125l-60 19v12h234v-12z" />
    <glyph glyph-name="afii10090" unicode="&#x448;" horiz-adv-x="883" 
d="M379 22v447l-48 19v12h221v-12l-48 -19v-447h177v447l-48 19v12h233v-12l-60 -19v-443l60 -16v-10h-849v10l60 16v443l-60 19v12h233v-12l-48 -19v-447h177z" />
    <glyph glyph-name="afii10091" unicode="&#x449;" horiz-adv-x="893" 
d="M847 -135l-46 135h-784v10l60 16v443l-60 19v12h233v-12l-48 -19v-447h177v447l-48 19v12h221v-12l-48 -19v-447h177v447l-48 19v12h233v-12l-60 -19v-447h66v-157h-25z" />
    <glyph glyph-name="afii10092" unicode="&#x44a;" horiz-adv-x="657" 
d="M30 500h351v-12l-60 -19v-184h110q87 0 140.5 -39t53.5 -104t-53 -103.5t-141 -38.5h-295v10l60 16v452h-114l-35 -91h-17v113zM389 265h-68v-245h68q51 0 79.5 31t28.5 91t-28.5 91.5t-79.5 31.5z" />
    <glyph glyph-name="afii10093" unicode="&#x44b;" horiz-adv-x="783" 
d="M312 0h-295v10l60 16v443l-60 19v12h245v-12l-60 -19v-184h110q87 0 140.5 -39t53.5 -104t-53 -103.5t-141 -38.5zM271 265h-69v-245h69q51 0 79 31.5t28 90.5q0 60 -28 91.5t-79 31.5zM766 488l-60 -19v-438l60 -19v-12h-245v12l60 19v438l-60 19v12h245v-12z" />
    <glyph glyph-name="afii10094" unicode="&#x44c;" horiz-adv-x="538" 
d="M312 0h-295v10l60 16v443l-60 19v12h245v-12l-60 -19v-184h110q87 0 140.5 -39t53.5 -104t-53 -103.5t-141 -38.5zM271 265h-69v-245h69q51 0 79 31.5t28 90.5q0 60 -28 91.5t-79 31.5z" />
    <glyph glyph-name="afii10095" unicode="&#x44d;" horiz-adv-x="539" 
d="M375 246h-201v22h201q-3 105 -41.5 162.5t-107.5 57.5q-51 0 -90 -32t-50 -98h-22v125l10 10l23 -18q56 29 135 29q128 0 199 -69.5t71 -188.5q0 -118 -69 -184.5t-197 -66.5q-78 0 -136 27q-59 29 -59 80q0 26 16.5 42.5t42.5 16.5q27 0 44 -19.5t17 -52.5v-59
q43 -20 76 -20q66 0 101.5 61.5t36.5 174.5z" />
    <glyph glyph-name="afii10096" unicode="&#x44e;" horiz-adv-x="817" 
d="M17 0v12l60 19v438l-60 19v12h235v-12l-50 -19v-202h89q4 107 72 172t172 65q111 0 178 -70q68 -70 68 -185t-68 -185q-67 -69 -178 -69q-108 0 -176 68q-67 67 -69 182h-88v-214l50 -19v-12h-235zM450 428q-32 -62 -32 -179t32 -179q32 -60 86 -60t85 60q32 62 32 179
t-32 179q-31 61 -85 61q-55 0 -86 -61z" />
    <glyph glyph-name="afii10097" unicode="&#x44f;" horiz-adv-x="584" 
d="M14 26l8 8q14 -11 29 -11q18 0 28 21q3 7 19 57l14 47q24 81 118 96q-73 7 -115.5 40.5t-42.5 86.5q0 59 52.5 94t139.5 35h303v-10l-60 -16v-443l60 -19v-12h-245v12l60 19v204h-44q-47 0 -71.5 -19.5t-37.5 -64.5l-14 -54q-15 -50 -31 -73q-21 -29 -72 -29
q-67 0 -98 31zM311 255h71v225h-71q-52 0 -82 -29t-30 -83q0 -55 29.5 -84t82.5 -29z" />
    <glyph glyph-name="uni0450" unicode="&#x450;" horiz-adv-x="562" 
d="M515 265l-15 -15h-336q1 -220 186 -220q85 0 144 59l11 -12q-83 -82 -207 -82q-126 0 -194 68q-67 68 -67 181q0 118 71 189t183 71q99 0 164 -56t65 -144q0 -21 -5 -39zM296 489q-56 0 -92.5 -58.5t-39.5 -165.5l235 17q0 207 -103 207zM170 641l67 67l139 -150l-11 -11
z" />
    <glyph glyph-name="afii10071" unicode="&#x451;" horiz-adv-x="562" 
d="M515 265l-15 -15h-336q1 -220 186 -220q85 0 144 59l11 -12q-83 -82 -207 -82q-126 0 -194 68q-67 68 -67 181q0 118 71 189t183 71q99 0 164 -56t65 -144q0 -21 -5 -39zM296 489q-56 0 -92.5 -58.5t-39.5 -165.5l235 17q0 207 -103 207zM105 611q0 30 19.5 50t50.5 20
t50.5 -20t19.5 -50q0 -31 -19.5 -51t-50.5 -20t-50.5 20t-19.5 51zM332 611q0 30 19.5 50t50.5 20t50.5 -20t19.5 -50q0 -31 -19.5 -51t-50.5 -20t-50.5 20t-19.5 51z" />
    <glyph glyph-name="afii10099" unicode="&#x452;" 
d="M17 0v12l60 19v555h-60v9l60 13v76l-60 13v13l171 17l14 -14v-105h176v-22h-176v-86l-3 -68l3 -3q36 35 87.5 55t102.5 20q75 0 114.5 -46t39.5 -128v-309q0 -72 -43 -125.5t-132 -100.5l-12 11q61 89 61 215v291q0 152 -90 152q-32 0 -68 -16t-60 -42v-375l60 -19v-12
h-245z" />
    <glyph glyph-name="afii10100" unicode="&#x453;" horiz-adv-x="466" 
d="M419 387l-35 91h-182v-447l90 -19v-12h-275v12l60 19v443l-60 16v10h419v-113h-17zM166 547l-11 11l139 150l67 -67z" />
    <glyph glyph-name="afii10101" unicode="&#x454;" horiz-adv-x="548" 
d="M37 244q0 121 72.5 190.5t205.5 69.5q80 0 136 -29l23 18l10 -10v-125h-22q-6 38 -22 65t-37 40.5t-41.5 19.5t-41.5 6q-72 0 -113 -58t-43 -163h231v-22h-231q2 -216 178 -216q83 0 144 59l11 -12q-83 -82 -206 -82q-121 0 -187.5 66.5t-66.5 182.5z" />
    <glyph glyph-name="afii10102" unicode="&#x455;" horiz-adv-x="454" 
d="M54 8l-10 10v111h22q29 -119 148 -119q55 0 88 26t33 69q0 33 -21 52q-9 9 -26 16q-27 12 -75 24l-51 15q-14 4 -43 18q-26 13 -40 27q-34 38 -34 96q0 71 45.5 111t136.5 40q73 0 129 -29l22 17l10 -10v-109h-22q-27 116 -135 116q-48 0 -76.5 -24.5t-28.5 -63.5
q0 -34 23 -51.5t84 -35.5l46 -15l41 -16q26 -10 40 -21q62 -47 57 -115q0 -72 -50.5 -112t-150.5 -40q-77 0 -140 29z" />
    <glyph glyph-name="afii10103" unicode="&#x456;" horiz-adv-x="279" 
d="M262 0h-245v12l60 19v433l-60 13v13l171 17l14 -14v-462l60 -19v-12zM212 640q0 -35 -22.5 -57.5t-56.5 -22.5q-53 -4 -73.5 49.5t15.5 86.5q23 23 58 23t57 -22.5t22 -56.5z" />
    <glyph glyph-name="afii10104" unicode="&#x457;" horiz-adv-x="279" 
d="M262 0h-245v12l60 19v433l-60 13v13l171 17l14 -14v-462l60 -19v-12zM-21 623q0 31 20 51t50 20q31 0 50.5 -20t19.5 -51q0 -30 -19.5 -50t-50.5 -20q-30 0 -50 20t-20 50zM151 623q0 31 20 51t50 20q31 0 51 -20t20 -51q0 -30 -20 -50t-51 -20q-30 0 -50 20t-20 50z" />
    <glyph glyph-name="afii10105" unicode="&#x458;" horiz-adv-x="279" 
d="M77 21v443l-60 13v13l171 17l14 -14v-472q0 -72 -42.5 -125.5t-132.5 -100.5l-11 11q61 89 61 215zM212 640q0 -35 -22.5 -57.5t-56.5 -22.5q-53 -4 -73.5 49.5t15.5 86.5q23 23 58 23t57 -22.5t22 -56.5z" />
    <glyph glyph-name="afii10106" unicode="&#x459;" horiz-adv-x="852" 
d="M626 0h-295v10l60 16v452h-155l-33 -332q-15 -151 -106 -151q-36 0 -59.5 19t-23.5 57q0 60 56 60q28 0 44 -15.5t16 -43.5v-31q4 -2 9 -2q13 0 24.5 28.5t17.5 75.5l34 331l-60 16v10h421v-10l-60 -17v-188h110q87 0 140.5 -39t53.5 -104t-53 -103.5t-141 -38.5z
M585 265h-69v-245h69q51 0 79.5 31.5t28.5 90.5q0 60 -28.5 91.5t-79.5 31.5z" />
    <glyph glyph-name="afii10107" unicode="&#x45a;" horiz-adv-x="874" 
d="M654 0h-285v12l50 18v215h-217v-214l50 -19v-12h-235v12l60 19v438l-60 19v12h235v-12l-50 -19v-202h217v202l-50 19v12h235v-12l-60 -19v-202h110q85 0 136.5 -36t51.5 -98q0 -60 -52 -96.5t-136 -36.5zM612 245h-68v-225h68q48 0 75.5 29t27.5 83q0 55 -27.5 84
t-75.5 29z" />
    <glyph glyph-name="afii10108" unicode="&#x45b;" 
d="M17 595l60 13v76l-60 13v13l171 17l14 -14v-105h176v-22h-176v-86l-3 -68l3 -3q36 35 87.5 55t102.5 20q75 0 114.5 -46t39.5 -128v-299l60 -19v-12h-236v12l50 19v281q0 152 -90 152q-32 0 -68 -16t-60 -42v-375l51 -19v-12h-236v12l60 19v555h-60v9z" />
    <glyph glyph-name="afii10109" unicode="&#x45c;" horiz-adv-x="582" 
d="M407 426v44q-8 2 -10 2q-37 0 -53 -73l-11 -53q-15 -59 -62 -82h29q79 0 119.5 -25t52.5 -84l11 -52q10 -46 19.5 -63t26.5 -17q15 0 29 11l8 -8q-31 -31 -99 -31q-48 0 -70 24t-35 80l-14 63q-11 49 -33 68t-69 19h-44v-218l56 -19v-12h-241v12l60 19v438l-60 19v12h245
v-12l-60 -19v-204q43 0 71 22t37 59l11 53q22 106 111 106q42 0 68 -19.5t26 -58.5q0 -30 -15.5 -46t-42.5 -16q-28 0 -44.5 16.5t-16.5 44.5zM218 547l-10 11l138 150l67 -67z" />
    <glyph glyph-name="uni045D" unicode="&#x45d;" 
d="M188 641l67 67l138 -150l-10 -11zM17 0v12l60 19v438l-60 19v12h236v-12l-51 -19v-284l-3 -81l3 -3l218 350v18l-50 19v12h236v-12l-60 -19v-438l60 -19v-12h-236v12l50 19v284l3 81l-3 3l-218 -350v-18l51 -19v-12h-236z" />
    <glyph glyph-name="afii10110" unicode="&#x45e;" horiz-adv-x="602" 
d="M377 579v63q0 28 15.5 44t41.5 16q25 0 40.5 -15.5t15.5 -39.5q0 -46 -53 -70q-52 -24 -116 -24q-63 0 -116 24t-53 71q-4 37 34 50q36 11 62 -11q19 -18 17 -45v-63q26 -10 56 -10q29 0 56 10zM288 -12l-219 481l-60 19v12h249v-12l-60 -19l153 -341l153 341l-84 19v12
h172v-12l-64 -19l-212 -469q-48 -106 -85 -156q-34 -46 -86 -46q-39 0 -65.5 19t-26.5 58q0 29 15 44.5t42 15.5t43 -16.5t16 -44.5v-39q6 -2 11 -2q22 0 45.5 35t62.5 120z" />
    <glyph glyph-name="afii10193" unicode="&#x45f;" horiz-adv-x="621" 
d="M298 -135l-23 135h-258v10l60 16v443l-60 19v12h235v-12l-50 -19v-447h217v447l-50 19v12h235v-12l-60 -19v-443l60 -16v-10h-259l-23 -135h-24z" />
    <glyph glyph-name="afii10050" unicode="&#x490;" horiz-adv-x="538" 
d="M17 690v10h425l50 106h17v-128h-297v-647l95 -19v-12h-290v12l65 19v643z" />
    <glyph glyph-name="afii10098" unicode="&#x491;" horiz-adv-x="433" 
d="M404 591v-113h-202v-447l90 -19v-12h-275v12l60 19v443l-60 16v10h330l39 91h18z" />
    <glyph glyph-name="uni04D8" unicode="&#x4d8;" horiz-adv-x="734" 
d="M96 592l-12 11q100 103 257 103q159 0 253 -96q95 -97 95 -259t-95 -260q-94 -97 -245 -97q-134 0 -220 77q-84 77 -84 199q0 35 7 55l20 20h481q0 154 -65 239t-192 85q-126 0 -200 -77zM347 11q94 0 149 82.5t57 236.5l-380 -26q0 -293 174 -293z" />
    <glyph glyph-name="afii10846" unicode="&#x4d9;" horiz-adv-x="562" 
d="M47 234l14 15h336q0 220 -181 220q-82 0 -141 -59l-11 12q82 82 204 82q124 0 190 -69q67 -68 67 -180q0 -119 -72 -189q-71 -71 -182 -71q-101 0 -165 55t-64 145q0 21 5 39zM266 10q56 0 92.5 58.5t38.5 165.5l-235 -17q0 -207 104 -207z" />
    <glyph glyph-name="uni20B4" unicode="&#x20b4;" horiz-adv-x="566" 
d="M94 271h-57v34h463v-34h-288q-48 -49 -48 -108q0 -61 46 -97.5t129 -36.5q95 0 157 60l11 -12q-85 -82 -221 -82q-115 0 -182 44.5t-67 116.5q0 65 57 115zM500 395h-463v34h288q45 47 45 109t-41 97.5t-120 35.5q-89 0 -151 -60l-11 12q44 43 93.5 62.5t122.5 19.5
q113 0 172.5 -43.5t59.5 -115.5q0 -68 -57 -117h62v-34z" />
    <glyph glyph-name="afii61352" unicode="&#x2116;" horiz-adv-x="1054" 
d="M17 0v10l65 19v639l-65 20v12h199l377 -522v493l-65 19v10h152v-10l-65 -19v-671h-36l-475 657v-628l65 -19v-10h-152zM857 706q66 0 107 -49.5t41 -131.5q0 -83 -41 -132t-107 -49q-67 0 -108 49t-41 132t41 132t108 49zM857 359q32 0 51 43t19 123t-19 123t-51 43
q-33 0 -51.5 -43t-18.5 -123t18.5 -123t51.5 -43zM1000 271h-287v34h287v-34z" />
    </font>
</defs>
</svg>
