<?xml version="1.0" standalone="no"?>
<!DOCTYPE svg PUBLIC "-//W3C//DTD SVG 1.1//EN" "http://www.w3.org/Graphics/SVG/1.1/DTD/svg11.dtd" >
<svg xmlns="http://www.w3.org/2000/svg" xmlns:xlink="http://www.w3.org/1999/xlink" version="1.1">
<metadata>
Created by FontForge 20170731 at Fri Jun  1 11:42:54 2018
 By Aleksey,,,
Copyright (c) 2014 by Andriy Konstantynov. All rights reserved.
</metadata>
<defs>
<font id="AngleciaProDisplay-LightItalic" horiz-adv-x="579" >
  <font-face 
    font-family="Anglecia Pro Display"
    font-weight="300"
    font-style="italic"
    font-stretch="normal"
    units-per-em="1000"
    panose-1="2 5 0 3 8 0 0 0 0 0"
    ascent="780"
    descent="-220"
    x-height="505"
    cap-height="700"
    bbox="-104.469 -205 1181 902"
    underline-thickness="50"
    underline-position="-200"
    slope="-12"
    unicode-range="U+0020-2116"
  />
<missing-glyph horiz-adv-x="217" 
 />
    <glyph glyph-name=".notdef" horiz-adv-x="217" 
 />
    <glyph glyph-name=".null" horiz-adv-x="0" 
 />
    <glyph glyph-name="nonmarkingreturn" horiz-adv-x="333" 
 />
    <glyph glyph-name="space" unicode=" " horiz-adv-x="217" 
 />
    <glyph glyph-name="uni0400" unicode="&#x400;" horiz-adv-x="608" 
d="M243 353l-70 -335h325l60 98h17l-24 -116h-528l1 7l67 15l137 656l-61 15l1 7h518l-24 -117h-15l-21 99h-315l-64 -311h254l34 76h15l-35 -170h-15l-2 76h-255zM366 830l54 46l109 -131l-12 -11z" />
    <glyph glyph-name="afii10023" unicode="&#x401;" horiz-adv-x="608" 
d="M243 353l-70 -335h325l60 98h17l-24 -116h-528l1 7l67 15l137 656l-61 15l1 7h518l-24 -117h-15l-21 99h-315l-64 -311h254l34 76h15l-35 -170h-15l-2 76h-255zM308 823q5 24 25.5 40.5t44.5 16.5t37 -16.5t8 -40.5q-5 -25 -25 -41.5t-44 -16.5t-37 16.5t-9 41.5z
M527 823q4 24 24.5 40.5t44.5 16.5t37 -16.5t8 -40.5q-4 -24 -24 -41t-44 -17t-37.5 16.5t-8.5 41.5z" />
    <glyph glyph-name="afii10051" unicode="&#x402;" horiz-adv-x="789" 
d="M575 -106l-8 -39q63 0 104 194l39 184q35 158 -89 158q-45 0 -96 -19t-87 -49l-62 -297l58 -18l-2 -8h-208l1 8l68 18l137 656h-197l-60 -99h-16l24 117h587l-24 -117h-16l-20 99h-195l-57 -272l-16 -62l3 -3q47 35 111 55t121 20q157 0 121 -170l-42 -201
q-21 -104 -73 -160t-128 -56q-42 0 -61 17.5t-13 45.5q4 36 40 46q33 10 51 -11q11 -14 5 -37z" />
    <glyph glyph-name="afii10052" unicode="&#x403;" horiz-adv-x="562" 
d="M603 682h-292l-136 -656l90 -18l-2 -8h-240l1 8l68 18l136 652l-61 15l1 7h495l-24 -117h-16zM376 734l-8 11l163 131l37 -46z" />
    <glyph glyph-name="afii10053" unicode="&#x404;" horiz-adv-x="698" 
d="M686 106l8 -11q-119 -101 -274 -101q-154 0 -225 96q-71 97 -37 260q35 165 145 259q111 96 262 96q133 0 197 -63l40 23l8 -10l-27 -130h-16q2 101 -67 133q-53 27 -119 27q-125 0 -209.5 -82.5t-121.5 -236.5h373l-5 -19h-372q-32 -152 21 -239t186 -87t233 85z" />
    <glyph glyph-name="afii10054" unicode="&#x405;" horiz-adv-x="574" 
d="M72 13l-9 10l29 136h18q0 -90 59 -123q47 -26 109 -26q85 0 143 42t74 116q16 73 -27 100q-26 19 -50 28q-6 3 -70 24q-17 5 -67 21q-31 12 -58 29q-21 13 -41 41q-26 40 -11 104q18 86 85.5 138t172.5 52q99 0 155 -48l44 29l8 -10l-28 -136h-18q0 92 -54 123
q-43 27 -96 27q-76 0 -130 -40t-68 -107q-6 -29 -1 -47t20 -39q14 -14 38 -25q2 -1 6 -2.5t9.5 -4t9.5 -4.5l57 -19q16 -5 61 -22q54 -23 81 -45q61 -54 43 -145q-19 -89 -92 -142t-190 -53q-106 0 -169 48z" />
    <glyph glyph-name="afii10055" unicode="&#x406;" horiz-adv-x="257" 
d="M373 692l-63 -18l-136 -648l57 -18l-1 -8h-207l2 8l67 18l136 648l-61 18l1 8h207z" />
    <glyph glyph-name="afii10056" unicode="&#x407;" horiz-adv-x="257" 
d="M373 692l-63 -18l-136 -648l57 -18l-1 -8h-207l2 8l67 18l136 648l-61 18l1 8h207zM152 800q5 24 25 40.5t43 16.5q24 0 37.5 -16.5t9.5 -40.5q-5 -25 -25.5 -41.5t-44.5 -16.5t-37 16.5t-8 41.5zM323 800q4 24 24 40.5t44 16.5t37.5 -16.5t8.5 -40.5q-4 -24 -24.5 -41
t-45.5 -17q-23 0 -36 16.5t-8 41.5z" />
    <glyph glyph-name="afii10057" unicode="&#x408;" horiz-adv-x="257" 
d="M90 10l138 664l-61 18l2 8h206l-2 -8l-64 -18l-138 -664q-27 -131 -176 -215l-9 11q79 86 104 204z" />
    <glyph glyph-name="afii10058" unicode="&#x409;" horiz-adv-x="1068" 
d="M238 156l166 522l-61 15l1 7h495l-1 -7l-67 -15l-61 -292h138q116 0 174 -52q60 -52 42 -141t-100 -141q-80 -52 -196 -52h-285l1 7l67 15l138 660h-265l-166 -524q-27 -85 -59 -124t-76 -39q-35 0 -55.5 18.5t-14.5 53.5q5 26 23 41.5t41 15.5q25 0 37 -16t6 -43l-7 -35
q3 -3 9 -3q15 0 36.5 35.5t39.5 93.5zM706 368l-73 -350h122q85 0 145 46.5t78 128.5q17 82 -24 128.5t-126 46.5h-122z" />
    <glyph glyph-name="afii10059" unicode="&#x40a;" horiz-adv-x="1059" 
d="M23 0l1 8l68 18l135 648l-61 18l2 8h211l-2 -8l-67 -18l-62 -298h360l63 298l-60 18l1 8h211l-2 -8l-67 -18l-62 -298h138q114 0 174 -51q60 -50 42 -137t-99 -138q-82 -50 -195 -50h-285l1 7l66 15l71 336h-361l-69 -332l60 -18l-2 -8h-210zM688 358l-70 -340h121
q84 0 144 45t77 125t-24.5 125t-126.5 45h-121z" />
    <glyph glyph-name="afii10060" unicode="&#x40b;" horiz-adv-x="831" 
d="M438 323l-62 -297l58 -18l-2 -8h-208l1 8l68 18l137 656h-197l-60 -99h-16l24 117h587l-24 -117h-16l-20 99h-195l-57 -272l-16 -62l3 -3q47 35 111 55t121 20q155 0 121 -171l-46 -223l60 -18l-1 -8h-214l1 8l71 18l43 209q16 74 -5.5 115t-83.5 41q-45 0 -96 -19
t-87 -49z" />
    <glyph glyph-name="afii10061" unicode="&#x40c;" horiz-adv-x="662" 
d="M636 36l7 -8q-41 -34 -94 -34q-52 0 -72.5 32.5t-22.5 109.5l-2 94q-2 62 -32 91.5t-99 29.5h-83v1l-68 -326l60 -18l-1 -8h-211l2 8l67 18l135 648l-60 18l1 8h211l-2 -8l-67 -18l-67 -322l4 16v1q136 0 197 124l34 72q36 73 71.5 107t89.5 34q41 0 62.5 -18.5
t13.5 -53.5q-13 -57 -65 -57q-25 0 -36 16t-5 42l7 40q-7 4 -17 4q-25 0 -48.5 -28t-52.5 -85l-35 -73q-47 -96 -124 -125h15q97 0 139.5 -30t45.5 -102l3 -93q2 -50 4 -67q9 -55 49 -55q20 0 46 15zM426 734l-9 11l164 131l36 -46z" />
    <glyph glyph-name="uni040D" unicode="&#x40d;" horiz-adv-x="723" 
d="M23 0l1 8l68 18l135 648l-61 18l2 8h211l-2 -8l-67 -18l-122 -584l502 569l3 15l-61 18l2 8h211l-1 -8l-68 -18l-135 -648l60 -18l-1 -8h-211l1 8l68 18l123 588l-502 -569l-4 -19l60 -18l-2 -8h-210zM423 830l55 46l109 -131l-12 -11z" />
    <glyph glyph-name="afii10062" unicode="&#x40e;" horiz-adv-x="691" 
d="M586 771l13 59q4 21 20 35t36 14q21 0 31 -13t6 -34q-9 -41 -63 -65t-111 -24q-58 0 -103 24q-44 24 -35 66q4 33 39 43q34 9 49 -13q9 -14 4 -33l-12 -59q27 -13 61 -13q32 0 65 13zM376 190l-147 484l-60 18l2 8h214l-2 -8l-67 -18l123 -403l297 403l-82 18l1 8h172
l-2 -8l-69 -18l-356 -480q-76 -105 -131 -155q-49 -45 -106 -45q-36 0 -64 16t-20 56q5 27 24 42.5t43 15.5q22 0 34.5 -15t7.5 -36l-10 -50q4 -3 13 -3q63 0 185 170z" />
    <glyph glyph-name="afii10145" unicode="&#x40f;" horiz-adv-x="716" 
d="M318 -150l12 150h-307l1 7l67 15l136 652l-61 18l2 8h211l-2 -8l-67 -18l-137 -656h376l137 656l-61 18l2 8h211l-1 -8l-68 -18l-136 -652l61 -15l-1 -7h-304l-51 -150h-20z" />
    <glyph glyph-name="afii10017" unicode="&#x410;" horiz-adv-x="741" 
d="M511 700h27l134 -674l60 -18l-1 -8h-215l2 8l68 18l-41 212h-309l-135 -212l83 -18l-2 -8h-171l1 8l70 18zM540 257l-66 355l-226 -355h292z" />
    <glyph glyph-name="afii10018" unicode="&#x411;" horiz-adv-x="627" 
d="M603 682h-292l-60 -287h150q114 0 173 -53q60 -52 42 -144q-20 -93 -101 -145q-82 -53 -195 -53h-297l1 7l67 15l137 656l-61 15l1 7h495l-25 -117h-16zM248 376l-75 -358h133q85 0 145.5 47.5t78.5 132.5q18 84 -23.5 131t-126.5 47h-132z" />
    <glyph glyph-name="afii10019" unicode="&#x412;" horiz-adv-x="634" 
d="M167 693l1 7h301q104 0 157.5 -47t36.5 -127q-14 -65 -64.5 -108.5t-126.5 -58.5q83 -14 122.5 -61t24.5 -116q-16 -83 -98 -133q-80 -49 -197 -49h-301l1 7l67 15l137 656zM242 349l-69 -331h138q86 0 146 44t76 121q17 79 -25 122.5t-128 43.5h-138zM449 682h-138
l-65 -315h137q73 0 125.5 41.5t67.5 115.5q16 74 -19 116t-108 42z" />
    <glyph glyph-name="afii10020" unicode="&#x413;" horiz-adv-x="562" 
d="M603 682h-292l-136 -656l90 -18l-2 -8h-240l1 8l68 18l136 652l-61 15l1 7h495l-24 -117h-16z" />
    <glyph glyph-name="afii10021" unicode="&#x414;" horiz-adv-x="697" 
d="M626 -150l-11 150h-533l-73 -150h-19l34 168h76q18 6 40 44t40 94l165 522l-60 15l1 7h526l-2 -7l-67 -15l-137 -660h75l-35 -168h-20zM661 682h-291l-166 -524q-34 -111 -73 -140h392z" />
    <glyph glyph-name="afii10022" unicode="&#x415;" horiz-adv-x="608" 
d="M243 353l-70 -335h325l60 98h17l-24 -116h-528l1 7l67 15l137 656l-61 15l1 7h518l-24 -117h-15l-21 99h-315l-64 -311h254l34 76h15l-35 -170h-15l-2 76h-255z" />
    <glyph glyph-name="afii10024" unicode="&#x416;" horiz-adv-x="1026" 
d="M322 675l-8 -40q-5 -26 -23 -42t-43 -16q-24 0 -36 15t-6 42q7 35 35.5 53.5t68.5 18.5q51 0 70.5 -32.5t25.5 -108.5l6 -72q6 -64 37.5 -94t97.5 -30l64 305l-60 18l1 8h212l-2 -8l-68 -18l-67 -322l4 16v1q65 0 109.5 30t77.5 94l35 72q38 77 71 109t83 32
q40 0 62 -18.5t14 -53.5q-13 -57 -65 -57q-25 0 -36 16t-6 42l8 40q-9 4 -15 4q-45 0 -98 -113l-35 -73q-47 -97 -120 -125h17q99 0 139.5 -33t39.5 -117l-1 -75q-1 -66 9.5 -94t40.5 -28q19 0 45 15l6 -8q-40 -34 -91 -34q-50 0 -71 34.5t-19 107.5l3 76q2 73 -26 106
t-101 33h-80v1l-68 -326l61 -18l-2 -8h-211l1 8l68 18l67 325h-80q-73 0 -114.5 -32.5t-69.5 -106.5l-30 -76q-28 -71 -64 -107q-35 -35 -85 -35q-51 0 -76 34l9 8q19 -15 39 -15q29 0 51.5 28t49.5 94l30 75q34 84 89 117q56 33 154 33h15q-62 30 -67 125l-6 73
q-8 113 -50 113q-7 0 -16 -4z" />
    <glyph glyph-name="afii10025" unicode="&#x417;" horiz-adv-x="600" 
d="M193 543h-16l27 128l12 10l29 -22q77 46 192 46q104 0 156 -48t35 -131q-13 -65 -63 -108.5t-127 -58.5q83 -14 122.5 -61t24.5 -116q-18 -87 -99 -138q-82 -50 -196 -50q-123 0 -181 49l-40 -23l-8 10l27 128h16q-1 -44 16 -74.5t46.5 -44t55 -18.5t53.5 -5
q87 0 147.5 44t77.5 123t-26.5 122.5t-134.5 43.5q-41 0 -87 -3l5 25q36 -4 86 -4q77 0 130.5 41t68.5 117q16 75 -19.5 117.5t-107.5 42.5q-47 0 -111 -23q-36 -13 -66 -44.5t-45 -74.5z" />
    <glyph glyph-name="afii10026" unicode="&#x418;" horiz-adv-x="723" 
d="M23 0l1 8l68 18l135 648l-61 18l2 8h211l-2 -8l-67 -18l-122 -584l502 569l3 15l-61 18l2 8h211l-1 -8l-68 -18l-135 -648l60 -18l-1 -8h-211l1 8l68 18l123 588l-502 -569l-4 -19l60 -18l-2 -8h-210z" />
    <glyph glyph-name="afii10027" unicode="&#x419;" horiz-adv-x="723" 
d="M590 795l11 58q5 22 21.5 35.5t36.5 13.5t30 -13.5t5 -33.5q-8 -41 -62 -65t-112 -24t-102 24q-43 23 -35 66q4 34 39 43q34 9 49 -13q9 -13 4 -33l-12 -58q30 -14 60 -14q31 0 67 14zM23 0l1 8l68 18l135 648l-61 18l2 8h211l-2 -8l-67 -18l-122 -584l502 569l3 15
l-61 18l2 8h211l-1 -8l-68 -18l-135 -648l60 -18l-1 -8h-211l1 8l68 18l123 588l-502 -569l-4 -19l60 -18l-2 -8h-210z" />
    <glyph glyph-name="afii10028" unicode="&#x41a;" horiz-adv-x="656" 
d="M372 692l-67 -18l-135 -648l60 -18l-1 -8h-211l2 8l67 18l135 648l-60 18l1 8h211zM604 635l7 40q-7 4 -17 4q-25 0 -48.5 -28t-52.5 -85l-35 -73q-47 -96 -124 -125h15q97 0 139.5 -30t45.5 -102l3 -93q2 -50 4 -67q9 -55 49 -55q20 0 46 15l7 -8q-41 -34 -94 -34
q-52 0 -72.5 32.5t-22.5 109.5l-2 94q-2 62 -32 91.5t-99 29.5h-83v1l4 16v1q136 0 197 124l34 72q36 73 71.5 107t89.5 34q41 0 62.5 -18.5t13.5 -53.5q-13 -57 -65 -57q-25 0 -36 16t-5 42z" />
    <glyph glyph-name="afii10029" unicode="&#x41b;" horiz-adv-x="724" 
d="M238 156l166 522l-61 15l1 7h510l-2 -7l-66 -15l-136 -652l60 -18l-2 -8h-210l1 8l68 18l137 656h-275l-166 -524q-51 -163 -140 -163q-35 0 -55.5 18.5t-14.5 53.5q5 26 23 41.5t41 15.5q25 0 37 -16t6 -43l-7 -35q3 -3 9 -3q15 0 36.5 35.5t39.5 93.5z" />
    <glyph glyph-name="afii10030" unicode="&#x41c;" horiz-adv-x="893" 
d="M972 692l-64 -18l-88 -648l57 -18l-2 -8h-207l2 8l67 18l81 596l-386 -622h-27l-132 623l-169 -598l57 -18l-1 -7h-142l1 7l68 18l182 649l-61 18l2 8h133l126 -612l379 612h125z" />
    <glyph glyph-name="afii10031" unicode="&#x41d;" horiz-adv-x="725" 
d="M23 0l1 8l68 18l135 648l-61 18l2 8h211l-2 -8l-67 -18l-64 -308h384l65 308l-61 18l2 8h211l-1 -8l-68 -18l-135 -648l60 -18l-1 -8h-211l1 8l68 18l67 322h-385l-67 -322l60 -18l-2 -8h-210z" />
    <glyph glyph-name="afii10032" unicode="&#x41e;" horiz-adv-x="762" 
d="M561 705q149 0 219 -96q71 -97 37 -259q-34 -163 -145 -260q-111 -96 -259 -96q-147 0 -218 96q-71 98 -37 260q34 163 145 259t258 96zM246 349q-33 -160 14 -251q48 -89 157 -89q108 0 194 89q85 89 118 251q34 160 -14 251q-48 90 -157 90q-107 0 -193 -90
q-84 -88 -119 -251z" />
    <glyph glyph-name="afii10033" unicode="&#x41f;" horiz-adv-x="716" 
d="M23 0l1 8l68 18l136 652l-61 15l1 7h670l-1 -7l-68 -15l-135 -652l61 -18l-2 -8h-211l1 8l68 18l137 656h-377l-136 -656l60 -18l-2 -8h-210z" />
    <glyph glyph-name="afii10034" unicode="&#x420;" horiz-adv-x="605" 
d="M414 682h-103l-136 -656l93 -18l-1 -8h-244l1 8l68 18l136 652l-61 15l1 7h262q117 0 176 -54t40 -146q-20 -93 -101 -145q-83 -53 -198 -53h-88l-10 12l2 6h88q83 0 143 47.5t78 132.5t-22.5 133.5t-123.5 48.5z" />
    <glyph glyph-name="afii10035" unicode="&#x421;" horiz-adv-x="698" 
d="M686 105l8 -11q-116 -100 -273 -100q-154 0 -226 96q-71 97 -37 260q35 165 145 259q111 96 261 96q134 0 198 -63l40 23l8 -10l-27 -130h-16q1 38 -12.5 69.5t-35.5 47.5q-58 45 -145 43q-120 0 -207 -88q-87 -87 -120 -245q-32 -155 20 -242q53 -89 187 -89t232 84z
" />
    <glyph glyph-name="afii10036" unicode="&#x422;" horiz-adv-x="659" 
d="M732 583l-20 99h-195l-136 -656l60 -18l-2 -8h-210l1 8l68 18l136 656h-195l-60 -99h-17l24 117h586l-24 -117h-16z" />
    <glyph glyph-name="afii10037" unicode="&#x423;" horiz-adv-x="691" 
d="M376 190l-147 484l-60 18l2 8h214l-2 -8l-67 -18l123 -403l297 403l-82 18l1 8h172l-2 -8l-69 -18l-356 -480q-76 -105 -131 -155q-49 -45 -106 -45q-36 0 -64 16t-20 56q5 27 24 42.5t43 15.5q22 0 34.5 -15t7.5 -36l-10 -50q4 -3 13 -3q63 0 185 170z" />
    <glyph glyph-name="afii10038" unicode="&#x424;" horiz-adv-x="840" 
d="M692 692l-63 -18l-11 -51q150 0 223 -73q74 -74 47 -200q-27 -127 -131 -201q-103 -72 -253 -72l-10 -51l56 -18l-2 -8h-206l1 8l68 18l10 51q-149 0 -223 72q-74 74 -47 201q27 126 131 200q103 73 253 73l11 51l-61 18l2 8h207zM425 92l107 516q-111 0 -189 -68
t-104 -191q-26 -122 24 -189.5t162 -67.5zM615 608l-107 -516q111 0 188 67t103 190q26 122 -24 190.5t-160 68.5z" />
    <glyph glyph-name="afii10039" unicode="&#x425;" horiz-adv-x="729" 
d="M499 8l69 18l-161 310l-294 -310l80 -18l-1 -8h-173l1 8l72 18l306 324l-166 324l-57 18l2 8h212l-2 -8l-68 -18l146 -288l266 288l-80 18l2 8h173l-2 -8l-71 -18l-280 -302l181 -346l58 -18l-2 -8h-212z" />
    <glyph glyph-name="afii10040" unicode="&#x426;" horiz-adv-x="720" 
d="M647 -150l-14 150h-610l1 7l67 15l136 652l-61 18l2 8h211l-2 -8l-67 -18l-137 -656h371l137 656l-61 18l2 8h211l-1 -8l-68 -18l-137 -656h75l-35 -168h-20z" />
    <glyph glyph-name="afii10041" unicode="&#x427;" horiz-adv-x="678" 
d="M395 692l-67 -18l-36 -174q-18 -90 7.5 -135t102.5 -45q47 0 103.5 13.5t97.5 35.5l63 305l-61 18l2 8h212l-2 -8l-68 -18l-135 -648l61 -18l-2 -8h-211l1 8l68 18l68 323q-49 -28 -116 -42q-68 -14 -120 -14q-198 0 -157 194l39 187l-61 18l2 8h211z" />
    <glyph glyph-name="afii10042" unicode="&#x428;" horiz-adv-x="1059" 
d="M23 0l1 7l67 15l136 652l-61 18l2 8h211l-2 -8l-67 -18l-137 -656h318l137 656l-60 18l1 8h211l-2 -8l-68 -18l-136 -656h318l137 656l-61 18l2 8h211l-2 -8l-67 -18l-137 -652l62 -15l-1 -7h-1013z" />
    <glyph glyph-name="afii10043" unicode="&#x429;" horiz-adv-x="1068" 
d="M995 -150l-14 150h-958l1 7l67 15l136 652l-61 18l2 8h211l-2 -8l-67 -18l-137 -656h318l137 656l-60 18l1 8h211l-2 -8l-68 -18l-136 -656h318l137 656l-61 18l2 8h211l-2 -8l-67 -18l-137 -656h75l-35 -168h-20z" />
    <glyph glyph-name="afii10044" unicode="&#x42a;" horiz-adv-x="787" 
d="M549 693l-67 -15l-61 -292h139q115 0 173 -52q60 -52 42 -141t-100 -141q-80 -52 -195 -52h-285l1 7l66 15l138 660h-162l-61 -99h-16l24 117h366zM417 368l-72 -350h122q84 0 144 46.5t78 128.5t-23.5 128.5t-126.5 46.5h-122z" />
    <glyph glyph-name="afii10045" unicode="&#x42b;" horiz-adv-x="845" 
d="M377 692l-67 -18l-60 -288h137q117 0 176.5 -52t40.5 -141q-18 -89 -100 -141q-80 -52 -196 -52h-285l1 7l67 15l136 652l-61 18l2 8h211zM246 368l-73 -350h121q85 0 145.5 46.5t78.5 128.5q17 82 -24.5 128.5t-126.5 46.5h-121zM962 692l-64 -18l-135 -648l57 -18
l-1 -8h-208l2 8l67 18l135 648l-60 18l1 8h208z" />
    <glyph glyph-name="afii10046" unicode="&#x42c;" horiz-adv-x="615" 
d="M377 692l-67 -18l-60 -288h137q117 0 176.5 -52t40.5 -141q-18 -89 -100 -141q-80 -52 -196 -52h-285l1 7l67 15l136 652l-61 18l2 8h211zM246 368l-73 -350h121q85 0 145.5 46.5t78.5 128.5q17 82 -24.5 128.5t-126.5 46.5h-121z" />
    <glyph glyph-name="afii10047" unicode="&#x42d;" horiz-adv-x="699" 
d="M634 347h-373l4 19h373q27 152 -22.5 235.5t-172.5 83.5q-62 0 -131 -26q-88 -34 -124 -134h-16l27 130l12 10l29 -23q93 63 223 63q153 0 223 -96q71 -96 37 -258q-35 -166 -146 -261q-111 -96 -264 -96q-135 0 -199 64l-41 -23l-8 10l27 130h16q-1 -38 12 -69.5
t34 -47.5q58 -44 145 -42q129 0 215 84.5t120 246.5z" />
    <glyph glyph-name="afii10048" unicode="&#x42e;" horiz-adv-x="974" 
d="M23 0l1 8l68 18l135 648l-61 18l2 8h211l-2 -8l-67 -18l-64 -308h145q36 156 139 247q104 92 235 92q136 0 199 -96q64 -96 30 -259t-138 -259t-239 -96q-134 0 -199 95q-64 95 -31 258h-145l-67 -322l60 -18l-2 -8h-210zM476 349q-34 -159 7 -250q41 -89 137 -89
q98 0 175 89q78 88 111 250q34 159 -7 251q-41 90 -137 90t-175 -91q-78 -90 -111 -250z" />
    <glyph glyph-name="afii10049" unicode="&#x42f;" horiz-adv-x="632" 
d="M24 28l9 8q19 -15 39 -15q28 0 47 23.5t50 90.5l32 70q28 61 65 93.5t93 43.5q-92 8 -135 55.5t-27 122.5q18 84 92 132q73 48 181 48h285l-2 -7l-67 -15l-136 -652l61 -18l-2 -8h-214l1 8l71 18l65 310h-72q-67 0 -109 -33t-72 -103l-31 -71q-31 -70 -65.5 -102.5
t-82.5 -32.5q-51 0 -76 34zM536 354l68 328h-126q-74 0 -126.5 -43.5t-68.5 -121.5q-17 -77 18 -120t109 -43h126z" />
    <glyph glyph-name="afii10065" unicode="&#x430;" horiz-adv-x="571" 
d="M609 67l5 -7q-77 -65 -131 -65q-25 0 -36.5 16.5t-2.5 48.5l6 25l-1 3q-90 -93 -203 -93q-88 0 -121.5 64.5t-9.5 177.5q26 128 107.5 197.5t204.5 69.5q69 0 126 -26l52 28l9 -12l-89 -427q-7 -36 19 -36q22 0 65 36zM455 118l71 342q-50 29 -104 29q-81 0 -139 -62.5
t-82 -174.5q-21 -104 4.5 -166.5t88.5 -62.5q84 0 161 95z" />
    <glyph glyph-name="afii10066" unicode="&#x431;" horiz-adv-x="586" 
d="M253 395h3q33 49 92 79t127 30q109 0 161 -70t27 -187q-24 -115 -105 -184q-82 -68 -194 -68q-241 0 -172 333q55 261 214 328q63 30 175 39q99 10 125 31l9 -12q-23 -27 -49.5 -44.5t-58.5 -26.5t-53 -12t-58 -6q-34 -2 -59 -6.5t-55 -18.5t-51.5 -38t-42.5 -66
t-35 -101zM263 249q-23 -111 7 -175t103 -64t128.5 63.5t78.5 175.5q24 113 -6 176.5t-102 63.5t-129 -64t-80 -176z" />
    <glyph glyph-name="afii10067" unicode="&#x432;" horiz-adv-x="507" 
d="M520 131q-14 -62 -76 -99q-61 -37 -149 -37q-113 0 -157 66t-19 187q25 122 96.5 189t183.5 67q81 0 122.5 -34t29.5 -92q-10 -46 -49 -77.5t-99 -41.5q65 -8 96.5 -42t20.5 -86zM295 10q55 0 95.5 33t52.5 90t-15.5 87t-90.5 30h-136q-51 -240 94 -240zM391 489
q-136 0 -187 -222h134q112 0 135 110q11 53 -10.5 82.5t-71.5 29.5z" />
    <glyph glyph-name="afii10068" unicode="&#x433;" horiz-adv-x="432" 
d="M479 390q-15 -69 -116 -118q-6 -3 -30 -13.5t-33 -14.5t-29.5 -15t-30.5 -17.5t-25.5 -18t-23 -22t-15 -24t-10.5 -27.5q-10 -44 19 -71.5t83 -27.5q77 0 148 59l8 -11q-89 -74 -194 -74q-79 0 -119 35t-29 90q8 38 40.5 67.5t74 49t83.5 38.5t74.5 47.5t39.5 65.5
q9 40 -16.5 65.5t-77.5 25.5q-71 0 -141 -59l-9 11q89 74 189 74q76 0 113 -31t27 -84z" />
    <glyph glyph-name="afii10069" unicode="&#x434;" horiz-adv-x="576" 
d="M562 403h4q9 55 3.5 98t-29 76.5t-51.5 57t-65 40t-69 25t-64 12.5l18 14q78 -12 114 -22q60 -16 107 -46q46 -29 78 -89q47 -88 12 -254q-33 -158 -111.5 -239t-196.5 -81q-111 0 -164 68q-52 68 -28 184t105 187q82 70 190 70q61 0 100 -27.5t47 -73.5zM520 249
q24 112 -6 176t-103 64q-72 0 -127.5 -63.5t-79.5 -176.5q-23 -112 6 -175.5t102 -63.5q72 0 128.5 64t79.5 175z" />
    <glyph glyph-name="afii10070" unicode="&#x435;" horiz-adv-x="523" 
d="M202 250q-23 -109 16.5 -169t134.5 -60q90 0 161 59l8 -11q-86 -74 -207 -74q-123 0 -172 69q-49 70 -25 183q24 118 106 187q82 70 204 70q83 0 122.5 -33.5t25.5 -98.5q-5 -22 -13.5 -37t-32.5 -32.5t-62.5 -28t-106 -17.5t-159.5 -7zM414 489q-68 0 -125.5 -58.5
t-83.5 -165.5q146 0 214 25t80 86q10 48 -12.5 80.5t-72.5 32.5z" />
    <glyph glyph-name="afii10072" unicode="&#x436;" horiz-adv-x="877" 
d="M141 56l-9 -39q34 0 81 66q49 67 68 159q14 59 9 99.5t-16 65.5t-29.5 39t-32.5 18.5t-25 4.5q-26 0 -70 -36l-5 7q76 65 129 65q8 0 18 -2t25 -8.5t28 -17t25.5 -29.5t19 -43.5t6 -61.5t-9.5 -82q-7 -32 -19 -66l141 143l33 162h66l10 -12l-63 -300l147 150
q35 80 90 123.5t118 43.5q39 0 57.5 -17.5t13.5 -44.5q-5 -22 -22.5 -36.5t-37.5 -14.5q-21 0 -32 14.5t-6 37.5l8 39q-35 0 -81 -66q-48 -68 -67 -159q-14 -59 -9 -99.5t16 -65.5t30 -39t32.5 -18.5t25.5 -4.5q26 0 69 36l5 -7q-77 -65 -129 -65q-12 0 -27.5 4.5t-38 18.5
t-35.5 41t-20 71t9 109q7 35 18 66l-140 -144l-32 -161h-66l-10 12l62 300l-148 -151q-35 -78 -90 -122t-116 -44q-40 0 -58 17.5t-13 44.5q4 22 21 36.5t38 14.5t32 -14.5t6 -37.5z" />
    <glyph glyph-name="afii10073" unicode="&#x437;" horiz-adv-x="490" 
d="M361 504q86 0 128 -34t30 -91q-10 -47 -49 -79t-98 -42q64 -8 95.5 -42t21.5 -86q-14 -63 -76 -99t-158 -36q-81 0 -133 28q-52 29 -42 75q4 21 19.5 34.5t36.5 13.5t31.5 -14.5t5.5 -38.5l-12 -60q40 -22 91 -22q60 0 100.5 32t53.5 90q11 57 -17 87t-93 30q-3 0 -69 -2
l4 22q37 -3 66 -3q116 0 138 109q11 54 -11.5 83t-73.5 29q-48 0 -92 -22l-11 -60q-6 -24 -22.5 -38.5t-37.5 -14.5t-31 13.5t-5 34.5q11 47 72 75q60 28 138 28z" />
    <glyph glyph-name="afii10074" unicode="&#x438;" 
d="M88 433l-5 7q77 65 131 65t40 -65l-57 -269q-31 -148 69 -148q41 0 89 27.5t86 73.5l79 376h68l10 -12l-88 -421q-8 -36 19 -36q21 0 65 36l5 -7q-77 -65 -132 -65q-52 0 -39 65l10 32l-2 3q-45 -48 -101 -74t-108 -26q-71 0 -100 42.5t-13 118.5l58 277q7 37 -19 36
q-25 -1 -65 -36z" />
    <glyph glyph-name="afii10075" unicode="&#x439;" 
d="M476 595l12 58q4 21 20.5 35t36.5 14q21 0 31 -13.5t5 -33.5q-8 -41 -62 -65t-112 -24q-59 0 -102 24t-36 66q4 33 39 43q34 9 50 -12q9 -13 4 -34l-13 -58q30 -14 61 -14q30 0 66 14zM88 433l-5 7q77 65 131 65t40 -65l-57 -269q-31 -148 69 -148q41 0 89 27.5t86 73.5
l79 376h68l10 -12l-88 -421q-8 -36 19 -36q21 0 65 36l5 -7q-77 -65 -132 -65q-52 0 -39 65l10 32l-2 3q-45 -48 -101 -74t-108 -26q-71 0 -100 42.5t-13 118.5l58 277q7 37 -19 36q-25 -1 -65 -36z" />
    <glyph glyph-name="afii10076" unicode="&#x43a;" horiz-adv-x="513" 
d="M88 433l-5 7q77 65 131 65t40 -65l-91 -440h-69l-10 12l88 421q7 37 -19 36q-25 -1 -65 -36zM446 448l6 30q-77 -18 -191 -192q34 -9 62 -36.5t41 -58.5q13 -29 27 -67q16 -42 25 -57q20 -35 48 -35q21 0 64 35l5 -7q-76 -64 -123 -64q-51 0 -80 68q-8 18 -22 67
q-26 99 -79 125l13 22l20 31l23 34q23 32 59 74q26 31 68 61q38 26 75 26q30 0 46 -17.5t11 -44.5q-4 -21 -21.5 -35.5t-38.5 -14.5q-22 0 -32.5 16t-5.5 40z" />
    <glyph glyph-name="afii10077" unicode="&#x43b;" horiz-adv-x="508" 
d="M129 51l-5 -23q44 0 127 272q15 50 23 67q11 27 31 54q30 41 83 58.5t153 20.5l-90 -433q-7 -36 18 -36t65 36l5 -7q-77 -65 -130 -65q-54 0 -40 65l87 418q-84 0 -123 -45q-38 -44 -65 -133q-10 -35 -29 -94q-12 -36 -30 -81q-26 -64 -55 -95t-68 -35q-28 0 -43.5 16
t-10.5 40q4 21 21 35.5t37 14.5t31.5 -14t7.5 -36z" />
    <glyph glyph-name="afii10078" unicode="&#x43c;" horiz-adv-x="756" 
d="M129 51l-7 -27q48 0 95 186l75 290h70l77 -412l261 412h68l-70 -433q-8 -36 18 -36q21 0 66 36l4 -7q-77 -65 -131 -65q-50 0 -39 65l59 372l-271 -432h-26l-85 434l-58 -224q-30 -117 -61 -165q-32 -50 -85 -50q-32 0 -47 15.5t-10 40.5q4 21 21 35.5t37 14.5t31.5 -14
t7.5 -36z" />
    <glyph glyph-name="afii10079" unicode="&#x43d;" horiz-adv-x="575" 
d="M214 248l-51 -248h-69l-10 12l88 421q7 37 -19 36q-25 -1 -65 -36l-5 7q77 65 131 65t40 -65l-36 -174h249l49 234h68l10 -12l-88 -421q-8 -36 19 -36q21 0 65 36l5 -7q-77 -65 -131 -65q-53 0 -40 65l39 188h-249z" />
    <glyph glyph-name="afii10080" unicode="&#x43e;" horiz-adv-x="576" 
d="M417 504q110 0 162 -70q54 -69 30 -185q-26 -117 -107 -185q-82 -69 -192 -69t-163 69q-53 70 -29 185q24 117 106 185q82 70 193 70zM202 249q-24 -110 7 -174.5t105 -64.5q75 0 132 64t80 175q24 113 -7 176.5t-106 63.5q-72 0 -130 -64q-58 -63 -81 -176z" />
    <glyph glyph-name="afii10081" unicode="&#x43f;" horiz-adv-x="581" 
d="M88 433l-5 7q77 65 131 65t40 -65l-10 -33l2 -3q44 47 102.5 73.5t110.5 26.5q145 0 109 -170l-55 -267q-9 -36 18 -36q21 0 65 36l5 -7q-77 -65 -131 -65t-40 65l55 259q31 156 -74 156q-40 0 -87 -27.5t-84 -72.5l-77 -375h-69l-10 12l88 421q7 37 -19 36
q-25 -1 -65 -36z" />
    <glyph glyph-name="afii10082" unicode="&#x440;" horiz-adv-x="569" 
d="M209 -200h-227l1 8l62 18l127 607q7 37 -19 36q-25 -1 -65 -36l-5 7q77 65 131 65t40 -65l-9 -26l2 -3q90 93 199 93q91 0 124.5 -64.5t9.5 -178.5q-26 -126 -104 -196t-192 -70q-74 0 -117 30l-42 -199l86 -18zM242 381l-72 -342q50 -29 104 -29q81 0 138.5 62.5
t81.5 174.5q22 104 -2.5 166t-85.5 62q-88 0 -164 -94z" />
    <glyph glyph-name="afii10083" unicode="&#x441;" horiz-adv-x="539" 
d="M480 377l17 82q-37 30 -87 30q-74 0 -129 -61.5t-77 -167.5q-23 -113 13.5 -176t128.5 -63q89 0 160 59l9 -11q-89 -74 -206 -74q-118 0 -166.5 67.5t-24.5 184.5q25 121 102 189t191 68q80 0 133 -36q52 -34 40 -91q-5 -26 -22.5 -41t-40.5 -15t-34.5 15.5t-6.5 40.5z
" />
    <glyph glyph-name="afii10084" unicode="&#x442;" horiz-adv-x="839" 
d="M88 433l-5 7q77 65 131 65t40 -65l-10 -34l2 -3q41 47 92.5 74t97.5 27q93 0 99 -103q43 49 97 76t101 27q131 0 93 -170l-55 -267q-7 -36 18 -36t65 36l5 -7q-77 -65 -130 -65q-54 0 -40 65l54 259q31 156 -60 156q-31 0 -73 -26.5t-77 -71.5q0 -26 -4 -43l-69 -334h-68
l-10 12l64 307q33 156 -57 156q-33 0 -75 -28.5t-75 -75.5l-76 -371h-69l-10 12l88 421q7 37 -19 36q-25 -1 -65 -36z" />
    <glyph glyph-name="afii10085" unicode="&#x443;" horiz-adv-x="575" 
d="M106 -135l-8 -39q2 -3 8 -3q19 0 77 51q62 51 116 114l-101 446q-8 35 -35 35q-25 0 -68 -36l-5 7q77 65 130 65q45 0 58 -68l81 -388q24 29 61 76q33 41 102 142q67 97 74 136h-34q-22 0 -34 14.5t-7 35.5q4 21 21 36t39 15q26 0 39.5 -19.5t7.5 -52.5
q-17 -75 -127 -227q-106 -148 -241 -280q-130 -127 -191 -127q-27 0 -44.5 17t-11.5 48q11 50 55 50q21 0 31.5 -13.5t6.5 -34.5z" />
    <glyph glyph-name="afii10086" unicode="&#x444;" horiz-adv-x="794" 
d="M555 468l3 -3q56 40 133 40q94 0 128.5 -64t10.5 -178q-27 -128 -98.5 -196.5t-176.5 -68.5q-48 0 -90 20l-41 -192l56 -18l-1 -8h-199l2 8l62 18l37 173l8 29l-2 3q-53 -37 -131 -37q-95 0 -130 64t-10 178q26 128 98.5 197.5t177.5 69.5q46 0 89 -20l44 208l-56 12
l1 10l131 13l9 -12l-44 -213zM296 18q51 0 95 32l87 418q-35 19 -75 19q-72 0 -125 -62.5t-76 -176.5q-22 -107 3 -168.5t91 -61.5zM651 480q-53 0 -97 -33l-86 -415q39 -19 76 -19q72 0 124 62t76 176q22 108 -3 168.5t-90 60.5z" />
    <glyph glyph-name="afii10087" unicode="&#x445;" horiz-adv-x="543" 
d="M138 54l-6 -30q30 7 68 52q54 64 106 169l-79 188q-14 36 -38 36t-66 -36l-5 7q74 65 113 65q49 0 75 -65l56 -136q104 200 201 200q30 0 45 -18t10 -45q-4 -21 -22 -35t-40 -14q-21 0 -31.5 15t-6.5 38l6 29q-70 -18 -154 -189l92 -218q17 -36 40 -36t61 36l6 -7
q-74 -65 -113 -65q-45 0 -72 65l-71 168q-35 -74 -87 -144q-65 -89 -133 -89q-29 0 -44.5 18t-10.5 45q5 21 22.5 35t38.5 14q22 0 33 -15t6 -38z" />
    <glyph glyph-name="afii10088" unicode="&#x446;" 
d="M590 64l4 3l5 -7l-5 -4q-23 -23 -29 -47q-5 -24 5 -48q10 -25 7 -39q-8 -38 -77 -94l-4 7q31 28 35 54q5 24 -5 48q-9 24 -6 39q3 19 28 47q-46 -28 -81 -28q-52 0 -39 65l10 32l-2 3q-45 -48 -101 -74t-108 -26q-71 0 -100 42.5t-13 118.5l58 277q7 37 -19 36
q-25 -1 -65 -36l-5 7q77 65 131 65t40 -65l-57 -269q-31 -148 69 -148q41 0 89 27.5t86 73.5l79 376h68l10 -12l-88 -421q-8 -36 19 -36q23 0 61 33z" />
    <glyph glyph-name="afii10089" unicode="&#x447;" horiz-adv-x="550" 
d="M444 274l47 226h69l10 -12l-88 -421q-9 -36 18 -36q22 0 65 36l5 -7q-77 -65 -131 -65t-40 65l41 194q-74 -56 -176 -56q-69 0 -96.5 40.5t-12.5 116.5l17 78q7 37 -19 36q-25 -1 -65 -36l-5 7q77 65 131 65t40 -65l-15 -72q-30 -143 66 -143q77 0 139 49z" />
    <glyph glyph-name="afii10090" unicode="&#x448;" horiz-adv-x="839" 
d="M856 67l5 -7q-77 -65 -130 -65q-54 0 -40 65l10 34l-2 3q-41 -47 -92.5 -74t-97.5 -27q-93 0 -100 103q-43 -49 -96.5 -76t-100.5 -27q-129 0 -94 170l56 267q7 37 -19 36q-25 -1 -65 -36l-5 7q77 65 131 65t40 -65l-55 -259q-31 -157 60 -157q31 0 73 27t77 72
q0 16 4 43l70 334h69l9 -12l-64 -307q-31 -157 56 -157q33 0 75 29t75 76l78 371h68l10 -12l-88 -421q-7 -36 18 -36t65 36z" />
    <glyph glyph-name="afii10091" unicode="&#x449;" horiz-adv-x="839" 
d="M849 61l7 6l5 -7l-4 -3q-23 -22 -28 -48q-5 -23 4 -48q10 -25 7 -39q-7 -36 -76 -94l-5 7q31 28 34 54q5 24 -5 48q-9 25 -6 39q4 20 30 48q-50 -29 -81 -29q-54 0 -40 65l10 34l-2 3q-41 -47 -92.5 -74t-97.5 -27q-93 0 -100 103q-43 -49 -96.5 -76t-100.5 -27
q-129 0 -94 170l56 267q7 37 -19 36q-25 -1 -65 -36l-5 7q77 65 131 65t40 -65l-55 -259q-31 -157 60 -157q31 0 73 27t77 72q0 16 4 43l70 334h69l9 -12l-64 -307q-31 -157 56 -157q33 0 75 29t75 76l78 371h68l10 -12l-88 -421q-7 -36 18 -36q21 0 58 30z" />
    <glyph glyph-name="afii10092" unicode="&#x44a;" horiz-adv-x="544" 
d="M375 505l5 -6q-63 -97 -109 -216q54 17 105 17q88 0 133.5 -41t31.5 -110q-15 -71 -83 -113q-68 -41 -164 -41q-178 0 -142 170q12 59 48 135q38 76 90 144q-17 -6 -34 -6q-19 0 -44 15q-26 15 -51 15q-38 0 -70 -26l-6 6q76 64 131 64q14 0 40 -15t53 -15q38 0 66 23z
M349 280q-40 0 -85 -16q-23 -60 -34 -116q-30 -136 73 -136q55 0 97.5 36t56.5 98q13 63 -16 98.5t-92 35.5z" />
    <glyph glyph-name="afii10093" unicode="&#x44b;" horiz-adv-x="716" 
d="M558 433l-4 7q77 65 131 65t40 -65l-78 -373q-7 -36 19 -36q22 0 65 36l5 -7q-79 -65 -131 -65q-54 0 -40 65l78 373q7 36 -19 36q-22 0 -66 -36zM88 433l-5 7q77 65 131 65t40 -65l-34 -162q59 22 120 22q88 0 134 -41t32 -109q-15 -71 -83 -113q-67 -42 -160 -42
q-82 0 -125 36t-29 100l63 302q7 37 -19 36q-25 -1 -65 -36zM313 280q-42 0 -97 -20l-31 -151q-9 -40 13.5 -68.5t70.5 -28.5q53 0 96.5 36.5t55.5 97.5q13 63 -16 98.5t-92 35.5z" />
    <glyph glyph-name="afii10094" unicode="&#x44c;" horiz-adv-x="509" 
d="M88 433l-5 7q77 65 131 65t40 -65l-34 -162q59 22 120 22q88 0 134 -41t32 -109q-15 -71 -83 -113q-67 -42 -160 -42q-82 0 -125 36t-29 100l63 302q7 37 -19 36q-25 -1 -65 -36zM313 280q-42 0 -97 -20l-31 -151q-9 -40 13.5 -68.5t70.5 -28.5q53 0 96.5 36.5t55.5 97.5
q13 63 -16 98.5t-92 35.5z" />
    <glyph glyph-name="afii10095" unicode="&#x44d;" horiz-adv-x="533" 
d="M361 504q117 0 166.5 -69t24.5 -186q-25 -119 -105 -186.5t-198 -67.5q-77 0 -128 30q-50 31 -40 77q4 21 19.5 34.5t36.5 13.5t31.5 -15t5.5 -39l-13 -60q47 -26 92 -26q78 0 134.5 63t80.5 174h-222l4 19h222q19 104 -14 163.5t-108 59.5q-43 0 -91 -23l-11 -60
q-6 -24 -22.5 -38.5t-37.5 -14.5q-20 0 -30 13t-6 35q10 47 72 75q60 28 137 28z" />
    <glyph glyph-name="afii10096" unicode="&#x44e;" horiz-adv-x="777" 
d="M213 247l-50 -247h-69l-10 12l88 421q7 37 -19 36q-25 -1 -65 -36l-5 7q77 65 131 65t40 -65l-36 -175h105q29 109 105 174q77 65 178 65q104 0 153 -70q50 -70 26 -185q-24 -117 -103 -185q-78 -69 -182 -69t-155 68q-50 69 -26 184h-106zM403 249q-23 -112 4.5 -175.5
t96.5 -63.5q68 0 121 63.5t76 175.5q24 112 -3 176t-95 64q-69 0 -122.5 -64t-77.5 -176z" />
    <glyph glyph-name="afii10097" unicode="&#x44f;" horiz-adv-x="531" 
d="M364 500h189l-91 -433q-8 -36 19 -36q21 0 65 36l5 -7q-77 -65 -132 -65q-52 0 -39 65l38 181h-1l-1 -6h-57q-46 0 -76 -21t-54 -69l-25 -51q-18 -36 -30 -54q-29 -44 -84 -44q-50 0 -69 25l8 7q14 -11 28 -11q19 0 32.5 16t38.5 66l24 47q41 81 120 97q-69 8 -102 41.5
t-23 86.5q13 59 72.5 94t144.5 35zM336 253h84l48 230h-84q-60 0 -101 -30.5t-52 -84.5q-12 -54 16.5 -84.5t88.5 -30.5z" />
    <glyph glyph-name="uni0450" unicode="&#x450;" horiz-adv-x="523" 
d="M202 250q-23 -109 16.5 -169t134.5 -60q90 0 161 59l8 -11q-86 -74 -207 -74q-123 0 -172 69q-49 70 -25 183q24 118 106 187q82 70 204 70q83 0 122.5 -33.5t25.5 -98.5q-5 -22 -13.5 -37t-32.5 -32.5t-62.5 -28t-106 -17.5t-159.5 -7zM414 489q-68 0 -125.5 -58.5
t-83.5 -165.5q146 0 214 25t80 86q10 48 -12.5 80.5t-72.5 32.5zM340 653l55 46l109 -131l-12 -11z" />
    <glyph glyph-name="afii10071" unicode="&#x451;" horiz-adv-x="523" 
d="M202 250q-23 -109 16.5 -169t134.5 -60q90 0 161 59l8 -11q-86 -74 -207 -74q-123 0 -172 69q-49 70 -25 183q24 118 106 187q82 70 204 70q83 0 122.5 -33.5t25.5 -98.5q-5 -22 -13.5 -37t-32.5 -32.5t-62.5 -28t-106 -17.5t-159.5 -7zM414 489q-68 0 -125.5 -58.5
t-83.5 -165.5q146 0 214 25t80 86q10 48 -12.5 80.5t-72.5 32.5zM271 607q5 25 25 41.5t44 16.5t37 -16.5t8 -41.5q-4 -24 -24.5 -40.5t-44.5 -16.5q-23 0 -36.5 16.5t-8.5 40.5zM489 607q5 25 25 41.5t44 16.5t37 -16.5t8 -41.5q-5 -24 -24.5 -40.5t-43.5 -16.5t-37.5 16.5
t-8.5 40.5z" />
    <glyph glyph-name="afii10099" unicode="&#x452;" horiz-adv-x="581" 
d="M240 375l-77 -375h-69l-10 12l121 578h-60l2 8l61 11l18 82l-57 12l2 10l130 13l10 -12l-22 -105h185l-4 -19h-185l-18 -90l-23 -93l2 -3q44 46 104 73t111 27q142 0 107 -170l-67 -324q-23 -105 -74.5 -160t-126.5 -55q-42 0 -61 18t-13 44q4 22 21 36.5t38 14.5t32 -15
t6 -37l-7 -39q64 0 104 193l65 309q30 156 -69 156q-39 0 -88.5 -27.5t-87.5 -72.5z" />
    <glyph glyph-name="afii10100" unicode="&#x453;" horiz-adv-x="439" 
d="M479 390q-15 -69 -116 -118q-6 -3 -30 -13.5t-33 -14.5t-29.5 -15t-30.5 -17.5t-25.5 -18t-23 -22t-15 -24t-10.5 -27.5q-10 -44 19 -71.5t83 -27.5q77 0 148 59l8 -11q-89 -74 -194 -74q-79 0 -119 35t-29 90q8 38 40.5 67.5t74 49t83.5 38.5t74.5 47.5t39.5 65.5
q9 40 -16.5 65.5t-77.5 25.5q-71 0 -141 -59l-9 11q89 74 189 74q76 0 113 -31t27 -84zM285 557l-8 11l163 131l37 -46z" />
    <glyph glyph-name="afii10101" unicode="&#x454;" horiz-adv-x="538" 
d="M424 489q-76 0 -135 -59.5t-83 -163.5h248l-4 -19h-249q-21 -107 16.5 -166.5t129.5 -59.5q88 0 159 59l9 -11q-89 -74 -206 -74q-118 0 -167 67t-24 183q24 118 103 188q80 71 200 71q76 0 125 -28q50 -29 41 -75q-5 -22 -20.5 -35t-35.5 -13q-21 0 -31.5 14.5
t-5.5 38.5l12 61q-35 22 -82 22z" />
    <glyph glyph-name="afii10102" unicode="&#x455;" horiz-adv-x="463" 
d="M404 405l14 64q-35 20 -75 20q-53 0 -90.5 -26.5t-45.5 -68.5q-8 -38 13.5 -57.5t84.5 -39.5l11 -4q21 -8 44 -17q37 -14 60 -35q47 -40 34 -107q-13 -65 -69 -102t-149 -37q-81 0 -121.5 27t-30.5 73q5 24 20 37t34 13q21 0 31 -14t6 -37l-13 -64q34 -20 76 -20
q60 0 102.5 28t51.5 73q9 41 -17.5 65.5t-94.5 46.5q-67 22 -106 47q-43 32 -29 98q12 63 64.5 99.5t139.5 36.5q77 0 116.5 -26.5t29.5 -73.5q-11 -50 -55 -50q-20 0 -30 14t-6 37z" />
    <glyph glyph-name="afii10103" unicode="&#x456;" horiz-adv-x="245" 
d="M88 433l-5 7q77 65 131 65t40 -65l-78 -373q-8 -36 19 -36q22 0 65 36l5 -7q-77 -65 -131 -65q-53 0 -40 65l78 373q7 37 -19 36q-25 -1 -65 -36zM187 641q5 26 26.5 44t47.5 18t40 -18t9 -44t-27 -44t-48 -18t-40 18t-8 44z" />
    <glyph glyph-name="afii10104" unicode="&#x457;" horiz-adv-x="245" 
d="M111 623q5 24 25 40.5t44 16.5t37.5 -16.5t8.5 -40.5q-5 -25 -25 -41.5t-45 -16.5q-23 0 -36 16.5t-9 41.5zM265 623q5 24 25 40.5t44 16.5t37.5 -16.5t8.5 -40.5q-5 -25 -25.5 -41.5t-43.5 -16.5q-24 0 -37 16.5t-9 41.5zM88 433l-5 7q77 65 131 65t40 -65l-78 -373
q-8 -36 19 -36q22 0 65 36l5 -7q-77 -65 -132 -65q-52 0 -39 65l78 373q8 36 -19 36q-25 0 -65 -36z" />
    <glyph glyph-name="afii10105" unicode="&#x458;" horiz-adv-x="245" 
d="M-7 -144l-7 -39q63 0 103 193l88 423q7 36 -18 36q-23 0 -66 -36l-5 7q77 65 131 65t40 -65l-90 -430q-22 -104 -73.5 -159.5t-125.5 -55.5q-42 0 -60.5 17.5t-12.5 44.5q4 22 21 36.5t37 14.5q21 0 32 -15t6 -37zM192 641q5 26 26.5 44t47.5 18t40 -18t9 -44t-27 -44
t-48 -18t-40 18t-8 44z" />
    <glyph glyph-name="afii10106" unicode="&#x459;" horiz-adv-x="775" 
d="M129 51l-5 -23q44 0 127 272l15 49q21 57 43 80q36 40 81 52q62 19 147 19l-46 -222q59 22 120 22q88 0 134 -41t32 -109q-15 -71 -82 -113t-161 -42q-82 0 -125 36t-29 100l72 347q-67 0 -110 -34q-16 -13 -32 -40q-21 -37 -42 -104q-10 -35 -29 -94q-12 -36 -30 -81
q-26 -64 -55 -95t-68 -35q-28 0 -43.5 16t-10.5 40q4 21 21 35.5t37 14.5t31.5 -14t7.5 -36zM585 280q-44 0 -98 -20l-31 -151q-9 -40 13.5 -68.5t70.5 -28.5q53 0 95.5 36t56.5 98q13 62 -16 98t-91 36z" />
    <glyph glyph-name="afii10107" unicode="&#x45a;" horiz-adv-x="830" 
d="M214 248l-51 -248h-69l-10 12l88 421q7 37 -19 36q-25 -1 -65 -36l-5 7q77 65 131 65t40 -65l-36 -174h240l49 234h68l10 -12l-43 -210q57 22 120 22q88 0 133.5 -41t31.5 -109q-15 -71 -82 -113t-161 -42q-82 0 -125 36t-29 100l24 117h-240zM635 280q-43 0 -98 -20
l-31 -151q-9 -40 13.5 -68.5t70.5 -28.5q53 0 96.5 36.5t55.5 97.5q13 62 -16 98t-91 36z" />
    <glyph glyph-name="afii10108" unicode="&#x45b;" horiz-adv-x="592" 
d="M596 67l5 -7q-79 -65 -131 -65q-54 0 -40 65l55 259q30 156 -69 156q-39 0 -88.5 -27.5t-87.5 -72.5l-77 -375h-69l-10 12l121 578h-60l2 8l61 11l18 82l-57 12l2 10l130 13l10 -12l-22 -105h185l-4 -19h-185l-18 -90l-23 -93l2 -3q44 46 104 73t111 27q142 0 107 -170
l-55 -267q-9 -36 18 -36q21 0 65 36z" />
    <glyph glyph-name="afii10109" unicode="&#x45c;" horiz-adv-x="513" 
d="M315 557l-8 11l164 131l36 -46zM88 433l-5 7q77 65 131 65t40 -65l-91 -440h-69l-10 12l88 421q7 37 -19 36q-25 -1 -65 -36zM446 448l6 30q-77 -18 -191 -192q34 -9 62 -36.5t41 -58.5q13 -29 27 -67q16 -42 25 -57q20 -35 48 -35q21 0 64 35l5 -7q-76 -64 -123 -64
q-51 0 -80 68q-8 18 -22 67q-26 99 -79 125l13 22l20 31l23 34q23 32 59 74q26 31 68 61q38 26 75 26q30 0 46 -17.5t11 -44.5q-4 -21 -21.5 -35.5t-38.5 -14.5q-22 0 -32.5 16t-5.5 40z" />
    <glyph glyph-name="uni045D" unicode="&#x45d;" 
d="M88 433l-5 7q77 65 131 65t40 -65l-57 -269q-31 -148 69 -148q41 0 89 27.5t86 73.5l79 376h68l10 -12l-88 -421q-8 -36 19 -36q21 0 65 36l5 -7q-77 -65 -132 -65q-52 0 -39 65l10 32l-2 3q-45 -48 -101 -74t-108 -26q-71 0 -100 42.5t-13 118.5l58 277q7 37 -19 36
q-25 -1 -65 -36zM314 653l55 46l108 -131l-11 -11z" />
    <glyph glyph-name="afii10110" unicode="&#x45e;" horiz-adv-x="575" 
d="M495 595l12 58q4 21 20 35t37 14t30.5 -13t4.5 -34q-8 -41 -62 -65t-112 -24q-57 0 -101 24t-36 66q4 34 39 43q34 9 49 -13q9 -13 4 -33l-12 -58q30 -14 60 -14q31 0 67 14zM106 -135l-8 -39q2 -3 8 -3q19 0 77 51q62 51 116 114l-101 446q-8 35 -35 35q-25 0 -68 -36
l-5 7q77 65 130 65q45 0 58 -68l81 -388q24 29 61 76q33 41 102 142q67 97 74 136h-34q-22 0 -34 14.5t-7 35.5q4 21 21 36t39 15q26 0 39.5 -19.5t7.5 -52.5q-17 -75 -127 -227q-106 -148 -241 -280q-130 -127 -191 -127q-27 0 -44.5 17t-11.5 48q11 50 55 50
q21 0 31.5 -13.5t6.5 -34.5z" />
    <glyph glyph-name="afii10193" unicode="&#x45f;" 
d="M88 433l-5 7q77 65 131 65t40 -65l-57 -269q-31 -148 69 -148q41 0 89 27.5t86 73.5l79 376h68l10 -12l-88 -421q-8 -36 19 -36q21 0 65 36l5 -7q-77 -65 -132 -65q-52 0 -39 65l10 32l-2 3q-54 -57 -120 -82q-12 -12 -19 -37q-4 -22 5 -48q10 -25 7 -38q-7 -36 -76 -94
l-5 7q29 26 35 54q5 23 -5 47q-9 25 -6 40q4 25 42 61q-39 -10 -67 -10q-71 0 -100 42.5t-13 118.5l58 277q7 37 -19 36q-25 -1 -65 -36z" />
    <glyph glyph-name="afii10050" unicode="&#x490;" horiz-adv-x="522" 
d="M167 693l1 7h408l59 98h16l-24 -116h-316l-136 -656l90 -18l-2 -8h-240l1 8l68 18l136 652z" />
    <glyph glyph-name="afii10098" unicode="&#x491;" horiz-adv-x="397" 
d="M96 67l90 433h233l47 86h16l-22 -104h-197l-88 -422q-14 -65 -68 -65q-53 0 -103 65l7 7q27 -36 51 -36q25 0 34 36z" />
    <glyph glyph-name="uni04D8" unicode="&#x4d8;" horiz-adv-x="726" 
d="M247 595l-9 11q117 99 271 99t226 -96q72 -95 38 -258t-146 -260q-110 -97 -257 -97q-133 0 -197 79q-64 78 -38 203q4 30 18 56l21 17h510q33 155 -20.5 242.5t-184.5 87.5q-135 0 -232 -84zM373 10q105 0 189 85q84 84 119 238l-455 -21q-31 -145 7.5 -223.5
t139.5 -78.5z" />
    <glyph glyph-name="afii10846" unicode="&#x4d9;" horiz-adv-x="549" 
d="M119 237l15 12h357q23 109 -15 169t-132 60q-87 0 -158 -59l-8 11q89 74 204 74q121 0 169 -69q49 -69 25 -179q-24 -118 -108 -190q-83 -71 -189 -71q-95 0 -143 56q-48 57 -30 146q7 29 13 40zM279 10q66 0 124 58q59 58 85 166l-297 -13q-20 -102 3 -156.5t85 -54.5z
" />
    <glyph glyph-name="uni20B4" unicode="&#x20b4;" horiz-adv-x="555" 
d="M173 275h-59l5 27h438l-5 -27h-297q-68 -50 -82 -115q-13 -63 30 -101t129 -38q103 0 174 59l9 -11q-91 -74 -223 -74q-112 0 -165.5 43.5t-38.5 116.5q17 71 85 120zM578 398h-439l6 27h297q62 47 78 115q13 66 -24 102.5t-121 36.5q-95 0 -168 -59l-9 11q91 74 216 74
q110 0 157.5 -43t31.5 -115q-15 -73 -82 -122h62z" />
    <glyph glyph-name="afii61352" unicode="&#x2116;" horiz-adv-x="1033" 
d="M23 0l1 7l68 18l135 649l-61 18l2 8h153l287 -580l116 555l-60 18l1 7h146l-1 -7l-67 -18l-141 -675h-25l-333 668l-135 -643l61 -18l-1 -7h-146zM806 525q18 83 67 132t113 49t93 -49.5t11 -131.5q-16 -81 -67 -132q-49 -49 -112 -49q-64 0 -93 49t-12 132zM865 525
q-16 -79 -2.5 -122.5t51.5 -43.5q37 0 70 44.5t48 121.5q15 79 1.5 122.5t-50.5 43.5q-39 0 -70.5 -44.5t-47.5 -121.5zM1033 275h-274l5 27h275z" />
    </font>
</defs>
</svg>
